<mxfile host="app.diagrams.net" agent="Mozilla/5.0 (Windows NT 10.0; Win64; x64) AppleWebKit/537.36 (KHTML, like Gecko) Chrome/141.0.0.0 Safari/537.36 Edg/141.0.0.0" version="28.2.5" pages="2">
  <diagram name="Page-1" id="uxqOT37ZwbZXu73O2S1v">
    <mxGraphModel dx="1305" dy="678" grid="1" gridSize="10" guides="1" tooltips="1" connect="1" arrows="1" fold="1" page="1" pageScale="1" pageWidth="1100" pageHeight="850" math="0" shadow="0">
      <root>
        <mxCell id="0" />
        <mxCell id="1" parent="0" />
        <mxCell id="L-XrNVOVLphdgEUR5hga-41" style="edgeStyle=orthogonalEdgeStyle;rounded=0;orthogonalLoop=1;jettySize=auto;html=1;" edge="1" parent="1" source="L-XrNVOVLphdgEUR5hga-2" target="L-XrNVOVLphdgEUR5hga-40">
          <mxGeometry relative="1" as="geometry" />
        </mxCell>
        <mxCell id="L-XrNVOVLphdgEUR5hga-2" value="dms-print-queue" style="sketch=0;points=[[0,0,0],[0.25,0,0],[0.5,0,0],[0.75,0,0],[1,0,0],[0,1,0],[0.25,1,0],[0.5,1,0],[0.75,1,0],[1,1,0],[0,0.25,0],[0,0.5,0],[0,0.75,0],[1,0.25,0],[1,0.5,0],[1,0.75,0]];outlineConnect=0;fontColor=#232F3E;fillColor=#E7157B;strokeColor=#ffffff;dashed=0;verticalLabelPosition=bottom;verticalAlign=top;align=center;html=1;fontSize=12;fontStyle=0;aspect=fixed;shape=mxgraph.aws4.resourceIcon;resIcon=mxgraph.aws4.mq;labelPosition=center;" vertex="1" parent="1">
          <mxGeometry x="40" y="560" width="78" height="78" as="geometry" />
        </mxCell>
        <mxCell id="L-XrNVOVLphdgEUR5hga-6" style="edgeStyle=orthogonalEdgeStyle;rounded=0;orthogonalLoop=1;jettySize=auto;html=1;labelPosition=center;verticalLabelPosition=top;align=center;verticalAlign=bottom;" edge="1" parent="1" source="L-XrNVOVLphdgEUR5hga-3" target="L-XrNVOVLphdgEUR5hga-5">
          <mxGeometry relative="1" as="geometry" />
        </mxCell>
        <mxCell id="L-XrNVOVLphdgEUR5hga-3" value="dms-policy-print&lt;div&gt;queue&lt;/div&gt;" style="sketch=0;points=[[0,0,0],[0.25,0,0],[0.5,0,0],[0.75,0,0],[1,0,0],[0,1,0],[0.25,1,0],[0.5,1,0],[0.75,1,0],[1,1,0],[0,0.25,0],[0,0.5,0],[0,0.75,0],[1,0.25,0],[1,0.5,0],[1,0.75,0]];outlineConnect=0;fontColor=#232F3E;fillColor=#E7157B;strokeColor=#ffffff;dashed=0;verticalLabelPosition=top;verticalAlign=bottom;align=center;html=1;fontSize=12;fontStyle=0;aspect=fixed;shape=mxgraph.aws4.resourceIcon;resIcon=mxgraph.aws4.sqs;labelPosition=center;" vertex="1" parent="1">
          <mxGeometry x="195" y="240" width="78" height="78" as="geometry" />
        </mxCell>
        <mxCell id="L-XrNVOVLphdgEUR5hga-17" style="edgeStyle=orthogonalEdgeStyle;rounded=0;orthogonalLoop=1;jettySize=auto;html=1;labelPosition=center;verticalLabelPosition=top;align=center;verticalAlign=bottom;" edge="1" parent="1" source="L-XrNVOVLphdgEUR5hga-5" target="L-XrNVOVLphdgEUR5hga-16">
          <mxGeometry relative="1" as="geometry" />
        </mxCell>
        <mxCell id="L-XrNVOVLphdgEUR5hga-45" value="Transaction ID,&lt;div&gt;Policy Number,&lt;/div&gt;&lt;div&gt;Document Set,&lt;/div&gt;&lt;div&gt;Policy Print JSON&lt;/div&gt;" style="edgeLabel;html=1;align=center;verticalAlign=middle;resizable=0;points=[];" vertex="1" connectable="0" parent="L-XrNVOVLphdgEUR5hga-17">
          <mxGeometry x="0.549" y="2" relative="1" as="geometry">
            <mxPoint as="offset" />
          </mxGeometry>
        </mxCell>
        <mxCell id="L-XrNVOVLphdgEUR5hga-5" value="form&lt;br&gt;definition&lt;br&gt;fetcher" style="sketch=0;points=[[0,0,0],[0.25,0,0],[0.5,0,0],[0.75,0,0],[1,0,0],[0,1,0],[0.25,1,0],[0.5,1,0],[0.75,1,0],[1,1,0],[0,0.25,0],[0,0.5,0],[0,0.75,0],[1,0.25,0],[1,0.5,0],[1,0.75,0]];outlineConnect=0;fontColor=#232F3E;fillColor=#ED7100;strokeColor=#ffffff;dashed=0;verticalLabelPosition=bottom;verticalAlign=top;align=center;html=1;fontSize=12;fontStyle=0;aspect=fixed;shape=mxgraph.aws4.resourceIcon;resIcon=mxgraph.aws4.lambda;labelPosition=center;" vertex="1" parent="1">
          <mxGeometry x="315" y="240" width="78" height="78" as="geometry" />
        </mxCell>
        <mxCell id="L-XrNVOVLphdgEUR5hga-8" value="forms-repository" style="sketch=0;pointerEvents=1;shadow=0;dashed=0;html=1;strokeColor=none;labelPosition=center;verticalLabelPosition=top;verticalAlign=bottom;align=center;fillColor=#505050;shape=mxgraph.mscae.intune.conditional_access_sharepoint;fillColorStyles=fillColor2;fillColor2=#2171ba;" vertex="1" parent="1">
          <mxGeometry x="317" y="40" width="74" height="90" as="geometry" />
        </mxCell>
        <mxCell id="L-XrNVOVLphdgEUR5hga-21" value="" style="edgeStyle=orthogonalEdgeStyle;rounded=0;orthogonalLoop=1;jettySize=auto;html=1;labelPosition=center;verticalLabelPosition=top;align=center;verticalAlign=bottom;" edge="1" parent="1" source="L-XrNVOVLphdgEUR5hga-12" target="L-XrNVOVLphdgEUR5hga-15">
          <mxGeometry relative="1" as="geometry" />
        </mxCell>
        <mxCell id="L-XrNVOVLphdgEUR5hga-30" style="edgeStyle=orthogonalEdgeStyle;rounded=0;orthogonalLoop=1;jettySize=auto;html=1;labelPosition=center;verticalLabelPosition=top;align=center;verticalAlign=bottom;" edge="1" parent="1" source="L-XrNVOVLphdgEUR5hga-12" target="L-XrNVOVLphdgEUR5hga-29">
          <mxGeometry relative="1" as="geometry" />
        </mxCell>
        <mxCell id="L-XrNVOVLphdgEUR5hga-12" value="product&lt;div&gt;provisioner&lt;div&gt;queue&lt;/div&gt;&lt;/div&gt;" style="sketch=0;points=[[0,0,0],[0.25,0,0],[0.5,0,0],[0.75,0,0],[1,0,0],[0,1,0],[0.25,1,0],[0.5,1,0],[0.75,1,0],[1,1,0],[0,0.25,0],[0,0.5,0],[0,0.75,0],[1,0.25,0],[1,0.5,0],[1,0.75,0]];outlineConnect=0;fontColor=#232F3E;fillColor=#E7157B;strokeColor=#ffffff;dashed=0;verticalLabelPosition=top;verticalAlign=bottom;align=center;html=1;fontSize=12;fontStyle=0;aspect=fixed;shape=mxgraph.aws4.resourceIcon;resIcon=mxgraph.aws4.sqs;labelPosition=center;" vertex="1" parent="1">
          <mxGeometry x="435" y="240" width="78" height="78" as="geometry" />
        </mxCell>
        <mxCell id="L-XrNVOVLphdgEUR5hga-13" style="edgeStyle=orthogonalEdgeStyle;rounded=0;orthogonalLoop=1;jettySize=auto;html=1;entryX=0;entryY=0.5;entryDx=0;entryDy=0;entryPerimeter=0;labelPosition=center;verticalLabelPosition=top;align=center;verticalAlign=bottom;" edge="1" parent="1" source="L-XrNVOVLphdgEUR5hga-5" target="L-XrNVOVLphdgEUR5hga-12">
          <mxGeometry relative="1" as="geometry" />
        </mxCell>
        <mxCell id="L-XrNVOVLphdgEUR5hga-14" value="dms-v2&lt;br&gt;printed&lt;br&gt;policies" style="sketch=0;points=[[0,0,0],[0.25,0,0],[0.5,0,0],[0.75,0,0],[1,0,0],[0,1,0],[0.25,1,0],[0.5,1,0],[0.75,1,0],[1,1,0],[0,0.25,0],[0,0.5,0],[0,0.75,0],[1,0.25,0],[1,0.5,0],[1,0.75,0]];outlineConnect=0;fontColor=#232F3E;fillColor=#7AA116;strokeColor=#ffffff;dashed=0;verticalLabelPosition=top;verticalAlign=bottom;align=center;html=1;fontSize=12;fontStyle=0;aspect=fixed;shape=mxgraph.aws4.resourceIcon;resIcon=mxgraph.aws4.s3;labelPosition=center;" vertex="1" parent="1">
          <mxGeometry x="933" y="240" width="78" height="78" as="geometry" />
        </mxCell>
        <mxCell id="L-XrNVOVLphdgEUR5hga-32" style="edgeStyle=orthogonalEdgeStyle;rounded=0;orthogonalLoop=1;jettySize=auto;html=1;labelPosition=center;verticalLabelPosition=top;align=center;verticalAlign=bottom;" edge="1" parent="1" source="L-XrNVOVLphdgEUR5hga-15" target="L-XrNVOVLphdgEUR5hga-31">
          <mxGeometry relative="1" as="geometry" />
        </mxCell>
        <mxCell id="L-XrNVOVLphdgEUR5hga-15" value="forms&lt;br&gt;fetcher" style="sketch=0;points=[[0,0,0],[0.25,0,0],[0.5,0,0],[0.75,0,0],[1,0,0],[0,1,0],[0.25,1,0],[0.5,1,0],[0.75,1,0],[1,1,0],[0,0.25,0],[0,0.5,0],[0,0.75,0],[1,0.25,0],[1,0.5,0],[1,0.75,0]];outlineConnect=0;fontColor=#232F3E;fillColor=#ED7100;strokeColor=#ffffff;dashed=0;verticalLabelPosition=bottom;verticalAlign=top;align=center;html=1;fontSize=12;fontStyle=0;aspect=fixed;shape=mxgraph.aws4.resourceIcon;resIcon=mxgraph.aws4.lambda;labelPosition=center;" vertex="1" parent="1">
          <mxGeometry x="555" y="240" width="78" height="78" as="geometry" />
        </mxCell>
        <mxCell id="L-XrNVOVLphdgEUR5hga-39" style="edgeStyle=orthogonalEdgeStyle;rounded=0;orthogonalLoop=1;jettySize=auto;html=1;labelPosition=center;verticalLabelPosition=top;align=center;verticalAlign=bottom;" edge="1" parent="1" source="L-XrNVOVLphdgEUR5hga-16" target="L-XrNVOVLphdgEUR5hga-35">
          <mxGeometry relative="1" as="geometry" />
        </mxCell>
        <mxCell id="L-XrNVOVLphdgEUR5hga-47" value="" style="edgeStyle=orthogonalEdgeStyle;rounded=0;orthogonalLoop=1;jettySize=auto;html=1;" edge="1" parent="1" source="L-XrNVOVLphdgEUR5hga-16" target="L-XrNVOVLphdgEUR5hga-46">
          <mxGeometry relative="1" as="geometry" />
        </mxCell>
        <mxCell id="L-XrNVOVLphdgEUR5hga-16" value="policy-print&lt;div&gt;database&lt;/div&gt;" style="sketch=0;points=[[0,0,0],[0.25,0,0],[0.5,0,0],[0.75,0,0],[1,0,0],[0,1,0],[0.25,1,0],[0.5,1,0],[0.75,1,0],[1,1,0],[0,0.25,0],[0,0.5,0],[0,0.75,0],[1,0.25,0],[1,0.5,0],[1,0.75,0]];outlineConnect=0;fontColor=#232F3E;fillColor=#C925D1;strokeColor=#ffffff;dashed=0;verticalLabelPosition=bottom;verticalAlign=top;align=center;html=1;fontSize=12;fontStyle=0;aspect=fixed;shape=mxgraph.aws4.resourceIcon;resIcon=mxgraph.aws4.rds;labelPosition=center;" vertex="1" parent="1">
          <mxGeometry x="315" y="560" width="78" height="78" as="geometry" />
        </mxCell>
        <mxCell id="L-XrNVOVLphdgEUR5hga-19" value="DLQ" style="sketch=0;points=[[0,0,0],[0.25,0,0],[0.5,0,0],[0.75,0,0],[1,0,0],[0,1,0],[0.25,1,0],[0.5,1,0],[0.75,1,0],[1,1,0],[0,0.25,0],[0,0.5,0],[0,0.75,0],[1,0.25,0],[1,0.5,0],[1,0.75,0]];outlineConnect=0;fontColor=#232F3E;fillColor=#E7157B;strokeColor=#ffffff;dashed=0;verticalLabelPosition=bottom;verticalAlign=top;align=center;html=1;fontSize=12;fontStyle=0;aspect=fixed;shape=mxgraph.aws4.resourceIcon;resIcon=mxgraph.aws4.sqs;labelPosition=center;" vertex="1" parent="1">
          <mxGeometry x="195" y="400" width="78" height="78" as="geometry" />
        </mxCell>
        <mxCell id="L-XrNVOVLphdgEUR5hga-20" style="edgeStyle=orthogonalEdgeStyle;rounded=0;orthogonalLoop=1;jettySize=auto;html=1;entryX=0.5;entryY=0;entryDx=0;entryDy=0;entryPerimeter=0;labelPosition=center;verticalLabelPosition=top;align=center;verticalAlign=bottom;" edge="1" parent="1" source="L-XrNVOVLphdgEUR5hga-3" target="L-XrNVOVLphdgEUR5hga-19">
          <mxGeometry relative="1" as="geometry" />
        </mxCell>
        <mxCell id="L-XrNVOVLphdgEUR5hga-28" style="edgeStyle=orthogonalEdgeStyle;rounded=0;orthogonalLoop=1;jettySize=auto;html=1;labelPosition=center;verticalLabelPosition=top;align=center;verticalAlign=bottom;" edge="1" parent="1" source="L-XrNVOVLphdgEUR5hga-25" target="L-XrNVOVLphdgEUR5hga-15">
          <mxGeometry relative="1" as="geometry" />
        </mxCell>
        <mxCell id="L-XrNVOVLphdgEUR5hga-25" value="forms-repository" style="sketch=0;pointerEvents=1;shadow=0;dashed=0;html=1;strokeColor=none;labelPosition=center;verticalLabelPosition=top;verticalAlign=bottom;align=center;fillColor=#505050;shape=mxgraph.mscae.intune.conditional_access_sharepoint;fillColorStyles=fillColor2;fillColor2=#2171ba;" vertex="1" parent="1">
          <mxGeometry x="556" y="40" width="76" height="86" as="geometry" />
        </mxCell>
        <mxCell id="L-XrNVOVLphdgEUR5hga-29" value="DLQ" style="sketch=0;points=[[0,0,0],[0.25,0,0],[0.5,0,0],[0.75,0,0],[1,0,0],[0,1,0],[0.25,1,0],[0.5,1,0],[0.75,1,0],[1,1,0],[0,0.25,0],[0,0.5,0],[0,0.75,0],[1,0.25,0],[1,0.5,0],[1,0.75,0]];outlineConnect=0;fontColor=#232F3E;fillColor=#E7157B;strokeColor=#ffffff;dashed=0;verticalLabelPosition=bottom;verticalAlign=top;align=center;html=1;fontSize=12;fontStyle=0;aspect=fixed;shape=mxgraph.aws4.resourceIcon;resIcon=mxgraph.aws4.sqs;labelPosition=center;" vertex="1" parent="1">
          <mxGeometry x="435" y="400" width="78" height="78" as="geometry" />
        </mxCell>
        <mxCell id="L-XrNVOVLphdgEUR5hga-36" value="" style="edgeStyle=orthogonalEdgeStyle;rounded=0;orthogonalLoop=1;jettySize=auto;html=1;labelPosition=center;verticalLabelPosition=top;align=center;verticalAlign=bottom;" edge="1" parent="1" source="L-XrNVOVLphdgEUR5hga-31" target="L-XrNVOVLphdgEUR5hga-35">
          <mxGeometry relative="1" as="geometry" />
        </mxCell>
        <mxCell id="L-XrNVOVLphdgEUR5hga-31" value="forms&lt;div&gt;assembler&lt;br&gt;queue&lt;/div&gt;" style="sketch=0;points=[[0,0,0],[0.25,0,0],[0.5,0,0],[0.75,0,0],[1,0,0],[0,1,0],[0.25,1,0],[0.5,1,0],[0.75,1,0],[1,1,0],[0,0.25,0],[0,0.5,0],[0,0.75,0],[1,0.25,0],[1,0.5,0],[1,0.75,0]];outlineConnect=0;fontColor=#232F3E;fillColor=#E7157B;strokeColor=#ffffff;dashed=0;verticalLabelPosition=top;verticalAlign=bottom;align=center;html=1;fontSize=12;fontStyle=0;aspect=fixed;shape=mxgraph.aws4.resourceIcon;resIcon=mxgraph.aws4.sqs;labelPosition=center;" vertex="1" parent="1">
          <mxGeometry x="675" y="240" width="78" height="78" as="geometry" />
        </mxCell>
        <mxCell id="L-XrNVOVLphdgEUR5hga-37" style="edgeStyle=orthogonalEdgeStyle;rounded=0;orthogonalLoop=1;jettySize=auto;html=1;labelPosition=center;verticalLabelPosition=top;align=center;verticalAlign=bottom;" edge="1" parent="1" source="L-XrNVOVLphdgEUR5hga-35" target="L-XrNVOVLphdgEUR5hga-14">
          <mxGeometry relative="1" as="geometry" />
        </mxCell>
        <mxCell id="L-XrNVOVLphdgEUR5hga-35" value="pdf&lt;div&gt;assembler&lt;div&gt;lambda&lt;/div&gt;&lt;/div&gt;" style="sketch=0;points=[[0,0,0],[0.25,0,0],[0.5,0,0],[0.75,0,0],[1,0,0],[0,1,0],[0.25,1,0],[0.5,1,0],[0.75,1,0],[1,1,0],[0,0.25,0],[0,0.5,0],[0,0.75,0],[1,0.25,0],[1,0.5,0],[1,0.75,0]];outlineConnect=0;fontColor=#232F3E;fillColor=#ED7100;strokeColor=#ffffff;dashed=0;verticalLabelPosition=top;verticalAlign=bottom;align=center;html=1;fontSize=12;fontStyle=0;aspect=fixed;shape=mxgraph.aws4.resourceIcon;resIcon=mxgraph.aws4.lambda;labelPosition=center;" vertex="1" parent="1">
          <mxGeometry x="795" y="240" width="78" height="78" as="geometry" />
        </mxCell>
        <mxCell id="L-XrNVOVLphdgEUR5hga-42" style="edgeStyle=orthogonalEdgeStyle;rounded=0;orthogonalLoop=1;jettySize=auto;html=1;" edge="1" parent="1" source="L-XrNVOVLphdgEUR5hga-40" target="L-XrNVOVLphdgEUR5hga-3">
          <mxGeometry relative="1" as="geometry" />
        </mxCell>
        <mxCell id="L-XrNVOVLphdgEUR5hga-40" value="message-publisher" style="sketch=0;points=[[0,0,0],[0.25,0,0],[0.5,0,0],[0.75,0,0],[1,0,0],[0,1,0],[0.25,1,0],[0.5,1,0],[0.75,1,0],[1,1,0],[0,0.25,0],[0,0.5,0],[0,0.75,0],[1,0.25,0],[1,0.5,0],[1,0.75,0]];outlineConnect=0;fontColor=#232F3E;fillColor=#ED7100;strokeColor=#ffffff;dashed=0;verticalLabelPosition=top;verticalAlign=bottom;align=center;html=1;fontSize=12;fontStyle=0;aspect=fixed;shape=mxgraph.aws4.resourceIcon;resIcon=mxgraph.aws4.lambda;labelPosition=center;" vertex="1" parent="1">
          <mxGeometry x="40" y="240" width="78" height="78" as="geometry" />
        </mxCell>
        <mxCell id="L-XrNVOVLphdgEUR5hga-44" style="edgeStyle=orthogonalEdgeStyle;rounded=0;orthogonalLoop=1;jettySize=auto;html=1;entryX=0.5;entryY=0.965;entryDx=0;entryDy=0;entryPerimeter=0;" edge="1" parent="1" source="L-XrNVOVLphdgEUR5hga-5" target="L-XrNVOVLphdgEUR5hga-8">
          <mxGeometry relative="1" as="geometry" />
        </mxCell>
        <mxCell id="L-XrNVOVLphdgEUR5hga-46" value="" style="sketch=0;points=[[0,0,0],[0.25,0,0],[0.5,0,0],[0.75,0,0],[1,0,0],[0,1,0],[0.25,1,0],[0.5,1,0],[0.75,1,0],[1,1,0],[0,0.25,0],[0,0.5,0],[0,0.75,0],[1,0.25,0],[1,0.5,0],[1,0.75,0]];outlineConnect=0;fontColor=#232F3E;fillColor=#8C4FFF;strokeColor=#ffffff;dashed=0;verticalLabelPosition=bottom;verticalAlign=top;align=center;html=1;fontSize=12;fontStyle=0;aspect=fixed;shape=mxgraph.aws4.resourceIcon;resIcon=mxgraph.aws4.api_gateway;" vertex="1" parent="1">
          <mxGeometry x="170" y="560" width="78" height="78" as="geometry" />
        </mxCell>
        <mxCell id="L-XrNVOVLphdgEUR5hga-49" value="" style="edgeStyle=orthogonalEdgeStyle;rounded=0;orthogonalLoop=1;jettySize=auto;html=1;" edge="1" parent="1" source="L-XrNVOVLphdgEUR5hga-48" target="L-XrNVOVLphdgEUR5hga-46">
          <mxGeometry relative="1" as="geometry" />
        </mxCell>
        <mxCell id="L-XrNVOVLphdgEUR5hga-48" value="OMD&lt;div&gt;REPORTING&lt;/div&gt;" style="verticalLabelPosition=bottom;html=1;verticalAlign=top;align=center;strokeColor=none;fillColor=#00BEF2;shape=mxgraph.azure.computer;pointerEvents=1;" vertex="1" parent="1">
          <mxGeometry x="182" y="720" width="54" height="60" as="geometry" />
        </mxCell>
        <mxCell id="L-XrNVOVLphdgEUR5hga-55" style="edgeStyle=orthogonalEdgeStyle;rounded=0;orthogonalLoop=1;jettySize=auto;html=1;" edge="1" parent="1" source="L-XrNVOVLphdgEUR5hga-54">
          <mxGeometry relative="1" as="geometry">
            <mxPoint x="310" y="79" as="targetPoint" />
          </mxGeometry>
        </mxCell>
        <mxCell id="L-XrNVOVLphdgEUR5hga-54" value="Product &lt;br&gt;Configurator" style="sketch=0;outlineConnect=0;fontColor=#232F3E;gradientColor=none;fillColor=#232F3D;strokeColor=none;dashed=0;verticalLabelPosition=bottom;verticalAlign=top;align=center;html=1;fontSize=12;fontStyle=0;aspect=fixed;pointerEvents=1;shape=mxgraph.aws4.authenticated_user;" vertex="1" parent="1">
          <mxGeometry x="40" y="40" width="78" height="78" as="geometry" />
        </mxCell>
      </root>
    </mxGraphModel>
  </diagram>
  <diagram id="YDFr7WwAxTtkYZaU0E3I" name="Page-2">
    <mxGraphModel dx="1305" dy="678" grid="0" gridSize="10" guides="1" tooltips="1" connect="1" arrows="1" fold="1" page="1" pageScale="1" pageWidth="1100" pageHeight="850" math="0" shadow="0">
      <root>
        <mxCell id="0" />
        <mxCell id="1" parent="0" />
        <mxCell id="kJDJlWwb6tZaWvkvZyPa-40" value="" style="group" vertex="1" connectable="0" parent="1">
          <mxGeometry x="25" y="18" width="1059" height="585" as="geometry" />
        </mxCell>
        <mxCell id="kJDJlWwb6tZaWvkvZyPa-3" style="edgeStyle=orthogonalEdgeStyle;rounded=0;orthogonalLoop=1;jettySize=auto;html=1;entryX=0;entryY=0.5;entryDx=0;entryDy=0;" edge="1" parent="kJDJlWwb6tZaWvkvZyPa-40" source="kJDJlWwb6tZaWvkvZyPa-1" target="kJDJlWwb6tZaWvkvZyPa-2">
          <mxGeometry relative="1" as="geometry" />
        </mxCell>
        <mxCell id="kJDJlWwb6tZaWvkvZyPa-1" value="Product&amp;nbsp;&lt;br&gt;TEAM" style="sketch=0;outlineConnect=0;fontColor=#232F3E;gradientColor=none;fillColor=#232F3D;strokeColor=none;dashed=0;verticalLabelPosition=bottom;verticalAlign=top;align=center;html=1;fontSize=12;fontStyle=0;aspect=fixed;pointerEvents=1;shape=mxgraph.aws4.users;container=0;" vertex="1" parent="kJDJlWwb6tZaWvkvZyPa-40">
          <mxGeometry y="69" width="78" height="78" as="geometry" />
        </mxCell>
        <mxCell id="kJDJlWwb6tZaWvkvZyPa-2" value="Product Form&#xa;REPOSITORY" style="shape=image;verticalLabelPosition=bottom;labelBackgroundColor=#ffffff;verticalAlign=top;aspect=fixed;imageAspect=0;image=data:image/svg+xml,PHN2ZyB4bWxuczpjYz0iaHR0cDovL2NyZWF0aXZlY29tbW9ucy5vcmcvbnMjIiB4bWxuczpkYz0iaHR0cDovL3B1cmwub3JnL2RjL2VsZW1lbnRzLzEuMS8iIHhtbG5zOmlua3NjYXBlPSJodHRwOi8vd3d3Lmlua3NjYXBlLm9yZy9uYW1lc3BhY2VzL2lua3NjYXBlIiB4bWxuczpyZGY9Imh0dHA6Ly93d3cudzMub3JnLzE5OTkvMDIvMjItcmRmLXN5bnRheC1ucyMiIHhtbG5zOnNvZGlwb2RpPSJodHRwOi8vc29kaXBvZGkuc291cmNlZm9yZ2UubmV0L0RURC9zb2RpcG9kaS0wLmR0ZCIgeG1sbnM6c3ZnPSJodHRwOi8vd3d3LnczLm9yZy8yMDAwL3N2ZyIgeG1sbnM9Imh0dHA6Ly93d3cudzMub3JnLzIwMDAvc3ZnIiB4bWxuczp4bGluaz0iaHR0cDovL3d3dy53My5vcmcvMTk5OS94bGluayIgdmVyc2lvbj0iMS4xIiBpZD0ic3ZnMjYyNTkwIiBpbmtzY2FwZTp2ZXJzaW9uPSIwLjkyLjMgKDI0MDU1NDYsIDIwMTgtMDMtMTEpIiBzb2RpcG9kaTpkb2NuYW1lPSJzaGFyZXBvaW50X3NlcnZlci5zdmciIHg9IjBweCIgeT0iMHB4IiB2aWV3Qm94PSIwIDAgNDguNDEgNjkuNzUiIHN0eWxlPSJlbmFibGUtYmFja2dyb3VuZDpuZXcgMCAwIDQ4LjQxIDY5Ljc1OyIgeG1sOnNwYWNlPSJwcmVzZXJ2ZSI+JiN4YTs8c29kaXBvZGk6bmFtZWR2aWV3IGJvcmRlcmNvbG9yPSIjNjY2NjY2IiBib3JkZXJvcGFjaXR5PSIxIiBmaXQtbWFyZ2luLWJvdHRvbT0iMCIgZml0LW1hcmdpbi1sZWZ0PSIwIiBmaXQtbWFyZ2luLXJpZ2h0PSIwIiBmaXQtbWFyZ2luLXRvcD0iMCIgZ3JpZHRvbGVyYW5jZT0iMTAiIGd1aWRldG9sZXJhbmNlPSIxMCIgaWQ9Im5hbWVkdmlldzI2MjU5MiIgaW5rc2NhcGU6Y3VycmVudC1sYXllcj0ic3ZnMjYyNTkwIiBpbmtzY2FwZTpjeD0iMzUuNjc0OTU0IiBpbmtzY2FwZTpjeT0iMzYuMzk0MTU0IiBpbmtzY2FwZTpwYWdlb3BhY2l0eT0iMCIgaW5rc2NhcGU6cGFnZXNoYWRvdz0iMiIgaW5rc2NhcGU6d2luZG93LWhlaWdodD0iMTAxNyIgaW5rc2NhcGU6d2luZG93LW1heGltaXplZD0iMSIgaW5rc2NhcGU6d2luZG93LXdpZHRoPSIxOTIwIiBpbmtzY2FwZTp3aW5kb3cteD0iLTgiIGlua3NjYXBlOndpbmRvdy15PSItOCIgaW5rc2NhcGU6em9vbT0iNy41MjQ3ODc4IiBvYmplY3R0b2xlcmFuY2U9IjEwIiBwYWdlY29sb3I9IiNmZmZmZmYiIHNob3dncmlkPSJmYWxzZSI+JiN4YTsJPC9zb2RpcG9kaTpuYW1lZHZpZXc+JiN4YTs8ZyBpZD0iZzI2MjU4OCIgdHJhbnNmb3JtPSJ0cmFuc2xhdGUoLTAuNzUwMDUzMDcsLTAuNzUwMDAwNTIpIj4mI3hhOwk8dGl0bGUgaWQ9InRpdGxlMjYyNTAyIj5QYWdlLTE8L3RpdGxlPiYjeGE7CTxnIGlkPSJncm91cDExMzI5LTEiIHRyYW5zZm9ybT0idHJhbnNsYXRlKDEuNSwtMTYuNjU3MSkiPiYjeGE7CQk8dGl0bGUgaWQ9InRpdGxlMjYyNTA0Ij5TaGFyZVBvaW50IFNlcnZlcjwvdGl0bGU+JiN4YTsJCTxnIGlkPSJncm91cDExMzMwLTIiIHRyYW5zZm9ybT0idHJhbnNsYXRlKDAsLTAuMDA3Mzk4NzYpIj4mI3hhOwkJCTx0aXRsZSBpZD0idGl0bGUyNjI1MDYiPmcxNTQzMy4xMTcyMTwvdGl0bGU+JiN4YTsJCQk8ZyBpZD0ic2hhcGUxMTMzMS0zIj4mI3hhOwkJCQk8dGl0bGUgaWQ9InRpdGxlMjYyNTA4Ij5yZWN0MTU0MDU8L3RpdGxlPiYjeGE7CQkJCSYjeGE7CQkJCQk8cmVjdCBpZD0icmVjdDI2MjUxMCIgeD0iMCIgeT0iMTguMTYiIHN0eWxlPSJmaWxsOiNGRkZGRkY7c3Ryb2tlOiM1NTZBOEE7c3Ryb2tlLXdpZHRoOjEuNTtzdHJva2UtbWl0ZXJsaW1pdDozOyIgd2lkdGg9IjM5Ljc1IiBoZWlnaHQ9IjY4LjI1Ii8+JiN4YTsJCQk8L2c+JiN4YTsJCQk8ZyBpZD0iZ3JvdXAxMTMzMi01IiB0cmFuc2Zvcm09InRyYW5zbGF0ZSgxLjUsLTAuNzUpIj4mI3hhOwkJCQk8dGl0bGUgaWQ9InRpdGxlMjYyNTEzIj5nMTU0MjU8L3RpdGxlPiYjeGE7CQkJCTxnIGlkPSJzaGFwZTExMzMzLTYiIHRyYW5zZm9ybT0idHJhbnNsYXRlKDE4KSI+JiN4YTsJCQkJCTx0aXRsZSBpZD0idGl0bGUyNjI1MTUiPnJlY3QxNTQwNzwvdGl0bGU+JiN4YTsJCQkJCTxyZWN0IGlkPSJyZWN0MjYyNTE3IiB4PSIwIiB5PSIxOS42NiIgc3R5bGU9ImZpbGw6I0U1RTVFNTsiIHdpZHRoPSIxOS41IiBoZWlnaHQ9IjY2Ljc1Ii8+JiN4YTsJCQkJPC9nPiYjeGE7CQkJCTxnIGlkPSJzaGFwZTExMzM0LTgiIHRyYW5zZm9ybT0idHJhbnNsYXRlKDAsLTQ4KSI+JiN4YTsJCQkJCTx0aXRsZSBpZD0idGl0bGUyNjI1MjAiPnJlY3QxNTQwOTwvdGl0bGU+JiN4YTsJCQkJCTxyZWN0IGlkPSJyZWN0MjYyNTIyIiB4PSIwIiB5PSI4NC4xNiIgc3R5bGU9ImZpbGw6IzJCQzdGNDsiIHdpZHRoPSIxOCIgaGVpZ2h0PSIyLjI1Ii8+JiN4YTsJCQkJPC9nPiYjeGE7CQkJCTxnIGlkPSJzaGFwZTExMzM1LTEwIiB0cmFuc2Zvcm09InRyYW5zbGF0ZSgwLC01OC41KSI+JiN4YTsJCQkJCTx0aXRsZSBpZD0idGl0bGUyNjI1MjUiPnBvbHlnb24xNTQxMTwvdGl0bGU+JiN4YTsJCQkJCTxyZWN0IGlkPSJyZWN0MjYyNTI3IiB4PSIwIiB5PSI4NC4xNiIgc3R5bGU9ImZpbGw6bm9uZTsiIHdpZHRoPSIyNyIgaGVpZ2h0PSIyLjI1Ii8+JiN4YTsJCQkJPC9nPiYjeGE7CQkJCTxnIGlkPSJzaGFwZTExMzM2LTEyIiB0cmFuc2Zvcm09InRyYW5zbGF0ZSgwLC01OC41KSI+JiN4YTsJCQkJCTx0aXRsZSBpZD0idGl0bGUyNjI1MzAiPnBvbHlsaW5lMTU0MTM8L3RpdGxlPiYjeGE7CQkJCQk8cmVjdCBpZD0icmVjdDI2MjUzMiIgeD0iMCIgeT0iODQuMTYiIHN0eWxlPSJmaWxsOm5vbmU7IiB3aWR0aD0iMjciIGhlaWdodD0iMi4yNSIvPiYjeGE7CQkJCTwvZz4mI3hhOwkJCQk8ZyBpZD0ic2hhcGUxMTMzNy0xNCIgdHJhbnNmb3JtPSJ0cmFuc2xhdGUoMCwtNTMuMjUpIj4mI3hhOwkJCQkJPHRpdGxlIGlkPSJ0aXRsZTI2MjUzNSI+cmVjdDE1NDE1PC90aXRsZT4mI3hhOwkJCQkJPHJlY3QgaWQ9InJlY3QyNjI1MzciIHg9IjAiIHk9Ijg0LjE2IiBzdHlsZT0iZmlsbDojMkJDN0Y0OyIgd2lkdGg9IjE4IiBoZWlnaHQ9IjIuMjUiLz4mI3hhOwkJCQk8L2c+JiN4YTsJCQkJPGcgaWQ9InNoYXBlMTEzMzgtMTYiIHRyYW5zZm9ybT0idHJhbnNsYXRlKDAsLTU4LjUpIj4mI3hhOwkJCQkJPHRpdGxlIGlkPSJ0aXRsZTI2MjU0MCI+cmVjdDE1NDE3PC90aXRsZT4mI3hhOwkJCQkJPHJlY3QgaWQ9InJlY3QyNjI1NDIiIHg9IjAiIHk9Ijg0LjE2IiBzdHlsZT0iZmlsbDojMkJDN0Y0OyIgd2lkdGg9IjE4IiBoZWlnaHQ9IjIuMjUiLz4mI3hhOwkJCQk8L2c+JiN4YTsJCQkJPGcgaWQ9InNoYXBlMTEzMzktMTgiIHRyYW5zZm9ybT0idHJhbnNsYXRlKDE4LC00OCkiPiYjeGE7CQkJCQk8dGl0bGUgaWQ9InRpdGxlMjYyNTQ1Ij5yZWN0MTU0MTk8L3RpdGxlPiYjeGE7CQkJCQk8cmVjdCBpZD0icmVjdDI2MjU0NyIgeD0iMCIgeT0iODQuMTYiIHN0eWxlPSJmaWxsOiM1NTZBOEE7IiB3aWR0aD0iMTkuNSIgaGVpZ2h0PSIyLjI1Ii8+JiN4YTsJCQkJPC9nPiYjeGE7CQkJCTxnIGlkPSJzaGFwZTExMzQwLTIwIiB0cmFuc2Zvcm09InRyYW5zbGF0ZSgxOCwtNTMuMjUpIj4mI3hhOwkJCQkJPHRpdGxlIGlkPSJ0aXRsZTI2MjU1MCI+cmVjdDE1NDIxPC90aXRsZT4mI3hhOwkJCQkJPHJlY3QgaWQ9InJlY3QyNjI1NTIiIHg9IjAiIHk9Ijg0LjE2IiBzdHlsZT0iZmlsbDojNTU2QThBOyIgd2lkdGg9IjE5LjUiIGhlaWdodD0iMi4yNSIvPiYjeGE7CQkJCTwvZz4mI3hhOwkJCQk8ZyBpZD0ic2hhcGUxMTM0MS0yMiIgdHJhbnNmb3JtPSJ0cmFuc2xhdGUoMTgsLTU4LjUpIj4mI3hhOwkJCQkJPHRpdGxlIGlkPSJ0aXRsZTI2MjU1NSI+cmVjdDE1NDIzPC90aXRsZT4mI3hhOwkJCQkJPHJlY3QgaWQ9InJlY3QyNjI1NTciIHg9IjAiIHk9Ijg0LjE2IiBzdHlsZT0iZmlsbDojNTU2QThBOyIgd2lkdGg9IjE5LjUiIGhlaWdodD0iMi4yNSIvPiYjeGE7CQkJCTwvZz4mI3hhOwkJCTwvZz4mI3hhOwkJCTxnIGlkPSJzaGFwZTExMzQyLTI0IiB0cmFuc2Zvcm09InRyYW5zbGF0ZSgwLjc1LC01OS4yNSkiPiYjeGE7CQkJCTx0aXRsZSBpZD0idGl0bGUyNjI1NjEiPnJlY3QxNTQyNzwvdGl0bGU+JiN4YTsJCQkJPHJlY3QgaWQ9InJlY3QyNjI1NjMiIHg9IjAiIHk9Ijg0LjE2IiBzdHlsZT0iZmlsbDojNTU2QThBOyIgd2lkdGg9IjIuMjUiIGhlaWdodD0iMi4yNSIvPiYjeGE7CQkJPC9nPiYjeGE7CQkJPGcgaWQ9InNoYXBlMTEzNDMtMjYiIHRyYW5zZm9ybT0idHJhbnNsYXRlKDAuNzUsLTU0KSI+JiN4YTsJCQkJPHRpdGxlIGlkPSJ0aXRsZTI2MjU2NiI+cmVjdDE1NDI5PC90aXRsZT4mI3hhOwkJCQk8cmVjdCBpZD0icmVjdDI2MjU2OCIgeD0iMCIgeT0iODQuMTYiIHN0eWxlPSJmaWxsOiM1NTZBOEE7IiB3aWR0aD0iMi4yNSIgaGVpZ2h0PSIyLjI1Ii8+JiN4YTsJCQk8L2c+JiN4YTsJCQk8ZyBpZD0ic2hhcGUxMTM0NC0yOCIgdHJhbnNmb3JtPSJ0cmFuc2xhdGUoMC43NSwtNDguNzUpIj4mI3hhOwkJCQk8dGl0bGUgaWQ9InRpdGxlMjYyNTcxIj5yZWN0MTU0MzE8L3RpdGxlPiYjeGE7CQkJCTxyZWN0IGlkPSJyZWN0MjYyNTczIiB4PSIwIiB5PSI4NC4xNiIgc3R5bGU9ImZpbGw6IzU1NkE4QTsiIHdpZHRoPSIyLjI1IiBoZWlnaHQ9IjIuMjUiLz4mI3hhOwkJCTwvZz4mI3hhOwkJPC9nPiYjeGE7CQk8ZyBpZD0ic2hhcGUxMTM0NS0zMCIgdHJhbnNmb3JtPSJ0cmFuc2xhdGUoMTMuNjk4MykiPiYjeGE7CQkJPHRpdGxlIGlkPSJ0aXRsZTI2MjU3NyI+cG9seWdvbjE1NDM1LjExNzM3PC90aXRsZT4mI3hhOwkJCSYjeGE7CQkJCTxwYXRoIGlkPSJwYXRoMjYyNTc5IiBpbmtzY2FwZTpjb25uZWN0b3ItY3VydmF0dXJlPSIwIiBzdHlsZT0iZmlsbDojRkZGRkZGO3N0cm9rZTojMEQ2QkE0O3N0cm9rZS13aWR0aDoxLjU7c3Ryb2tlLW1pdGVybGltaXQ6MzsiIGQ9IiAgICAgTTguMjcsODYuNDFMMCw3Mi4xOGw4LjI3LTE0LjI0aDE2LjU1bDguMjcsMTQuMjRsLTguMjcsMTQuMjNIOC4yN3oiLz4mI3hhOwkJPC9nPiYjeGE7CQk8ZyBpZD0ic2hhcGUxMTM0Ni0zMiIgdHJhbnNmb3JtPSJ0cmFuc2xhdGUoMjEuNzgwNywtNS4xMzgxMSkiPiYjeGE7CQkJPHRpdGxlIGlkPSJ0aXRsZTI2MjU4MiI+U2hhcmVQb2ludDwvdGl0bGU+JiN4YTsJCQk8cGF0aCBpZD0icGF0aDI2MjU4NCIgaW5rc2NhcGU6Y29ubmVjdG9yLWN1cnZhdHVyZT0iMCIgc3R5bGU9ImZpbGw6IzI3NzNCQTsiIGQ9Ik0xNi4zMyw3NC44NmMtMC41OC0xLjExLTEuNDUtMi4wMy0yLjU2LTIuNTYgICAgIGMtMC4xNC0xLjI1LTEuMi0yLjI2LTIuNTUtMi4yNmMtMC4xNCwwLTAuMjksMC0wLjQ4LDAuMDV2LTIuMDJMMCw2OS45NHYxNC42bDEwLjc0LDEuODd2LTEuODNjMC4xNCwwLjA1LDAuMjksMC4wNSwwLjQ4LDAuMDUgICAgIGMxLjMsMCwyLjQxLTAuOTYsMi41NS0yLjI2YzEuMTEtMC41MywyLjAzLTEuNDUsMi41Ni0yLjU1YzEuMjUtMC4xNSwyLjI2LTEuMjEsMi4yNi0yLjUxUzE3LjYzLDc1LDE2LjMzLDc0Ljg2eiBNMTAuNzksNzUuMSAgICAgYzAuMTQsMC4wNSwwLjI5LDAuMDUsMC40OCwwLjA1YzAuNjcsMCwxLjI1LTAuMjUsMS43My0wLjY4YzAuNDgsMC4yOSwwLjkyLDAuNzIsMS4yMSwxLjJjLTAuNDQsMC40OS0wLjY4LDEuMDYtMC42OCwxLjc0ICAgICBjMCwwLjYyLDAuMjQsMS4yNSwwLjY4LDEuNzNjLTAuMjksMC40OC0wLjczLDAuOTItMS4yMSwxLjIxYy0wLjQ4LTAuNDQtMS4wNi0wLjY4LTEuNzMtMC42OGMtMC4xNSwwLTAuMjksMC0wLjQ4LDAuMDUgICAgIEwxMC43OSw3NS4xeiBNNi45OCw3OS40M2MtMC40OCwxLjM1LTIuMzEsMS40NS0zLjQyLDAuODdjLTAuMTktMC4xLTAuMjQtMC4xLTAuMjQtMC4yOWMwLTAuMTksMC0wLjM0LDAtMC41MyAgICAgYzAtMC4yOSwwLTAuNTMsMC0wLjgyYzAuMzQsMC4zOSwwLjczLDAuNjMsMS4yMSwwLjcyYzAuMzMsMC4xLDAuODIsMC4wNSwxLjAxLTAuMzNjMC40OC0wLjg3LTAuODctMS4zLTEuMzUtMS42OSAgICAgQzMuNDcsNzYuNzgsMy4xMyw3NS45MiwzLjM3LDc1YzAuMjQtMC44NywxLjA2LTEuMzUsMS45OC0xLjRjMC40My0wLjA0LDAuODYsMCwxLjMsMC4xNWMwLjA5LDAuMDUsMC4xNCwwLjA1LDAuMTQsMC4xNCAgICAgYzAsMC4xLDAsMC4yLDAsMC4yOWMwLDAuMzksMCwwLjc3LDAsMS4xMWMtMC40OC0wLjM5LTEuNDQtMC42Ny0xLjk3LTAuMjRjLTAuMjQsMC4xOS0wLjI5LDAuNTMtMC4yLDAuNzcgICAgIGMwLjEsMC4yOSwwLjM5LDAuNDMsMC42MywwLjU4YzAuNTMsMC4zMywxLjExLDAuNTgsMS40NCwxLjFDNy4xOCw3OC4wOCw3LjIyLDc4LjgxLDYuOTgsNzkuNDN6IE0xNi4wNCw3OS4yNCAgICAgYy0wLjA1LDAtMC4xLDAtMC4xNSwwYy0wLjUzLDEuMjUtMS40OSwyLjI2LTIuNzQsMi43NGMwLDAuMDUsMCwwLjEsMCwwLjE1YzAsMS4wNi0wLjg3LDEuOTItMS45MywxLjkyYy0wLjE0LDAtMC4yOSwwLTAuNDgtMC4wNCAgICAgVjgwLjNjMC4xNC0wLjA1LDAuMjktMC4wNSwwLjQ4LTAuMDVjMC42OCwwLDEuMjUsMC4zNCwxLjU5LDAuODJjMC45Ni0wLjQzLDEuNzMtMS4xNiwyLjEyLTIuMTJjLTAuNTMtMC4zNC0wLjgyLTAuOTItMC44Mi0xLjU0ICAgICBjMC0wLjY4LDAuMzQtMS4yMSwwLjgyLTEuNTRjLTAuNDMtMC45Ny0xLjE2LTEuNzQtMi4xMi0yLjEyYy0wLjM0LDAuNTMtMC45MSwwLjgyLTEuNTksMC44MmMtMC4xNCwwLTAuMjksMC0wLjQ4LTAuMDV2LTMuNzEgICAgIGMwLjE0LTAuMDUsMC4yOS0wLjA1LDAuNDgtMC4wNWMxLjA2LDAsMS45MywwLjg3LDEuOTMsMS45M2MwLDAuMDUsMCwwLjEsMCwwLjE0YzEuMjUsMC41MywyLjI2LDEuNSwyLjc0LDIuNzUgICAgIGMwLjA1LDAsMC4xLDAsMC4xNSwwYzEuMDYsMCwxLjkyLDAuODcsMS45MiwxLjkyQzE3Ljk2LDc4LjQyLDE3LjEsNzkuMjQsMTYuMDQsNzkuMjRMMTYuMDQsNzkuMjR6Ii8+JiN4YTsJCTwvZz4mI3hhOwk8L2c+JiN4YTs8L2c+JiN4YTs8L3N2Zz4=;container=0;" vertex="1" parent="kJDJlWwb6tZaWvkvZyPa-40">
          <mxGeometry x="133" y="39.460000000000036" width="94" height="137.08" as="geometry" />
        </mxCell>
        <mxCell id="kJDJlWwb6tZaWvkvZyPa-13" style="edgeStyle=orthogonalEdgeStyle;rounded=0;orthogonalLoop=1;jettySize=auto;html=1;" edge="1" parent="kJDJlWwb6tZaWvkvZyPa-40" source="kJDJlWwb6tZaWvkvZyPa-5" target="kJDJlWwb6tZaWvkvZyPa-11">
          <mxGeometry relative="1" as="geometry">
            <Array as="points">
              <mxPoint x="477" y="368" />
              <mxPoint x="477" y="368" />
            </Array>
          </mxGeometry>
        </mxCell>
        <mxCell id="kJDJlWwb6tZaWvkvZyPa-8" style="edgeStyle=orthogonalEdgeStyle;rounded=0;orthogonalLoop=1;jettySize=auto;html=1;" edge="1" parent="kJDJlWwb6tZaWvkvZyPa-40" source="kJDJlWwb6tZaWvkvZyPa-7" target="kJDJlWwb6tZaWvkvZyPa-5">
          <mxGeometry relative="1" as="geometry" />
        </mxCell>
        <mxCell id="kJDJlWwb6tZaWvkvZyPa-9" value="Print Policy" style="edgeLabel;html=1;align=center;verticalAlign=middle;resizable=0;points=[];container=0;" vertex="1" connectable="0" parent="kJDJlWwb6tZaWvkvZyPa-8">
          <mxGeometry x="-0.251" y="-6" relative="1" as="geometry">
            <mxPoint as="offset" />
          </mxGeometry>
        </mxCell>
        <mxCell id="kJDJlWwb6tZaWvkvZyPa-7" value="Operations&amp;nbsp;&lt;div&gt;TEAM&lt;/div&gt;" style="sketch=0;outlineConnect=0;fontColor=#232F3E;gradientColor=none;fillColor=#232F3D;strokeColor=none;dashed=0;verticalLabelPosition=bottom;verticalAlign=top;align=center;html=1;fontSize=12;fontStyle=0;aspect=fixed;pointerEvents=1;shape=mxgraph.aws4.users;container=0;" vertex="1" parent="kJDJlWwb6tZaWvkvZyPa-40">
          <mxGeometry x="5" y="507" width="78" height="78" as="geometry" />
        </mxCell>
        <mxCell id="kJDJlWwb6tZaWvkvZyPa-26" style="edgeStyle=orthogonalEdgeStyle;rounded=0;orthogonalLoop=1;jettySize=auto;html=1;entryX=0.75;entryY=1;entryDx=0;entryDy=0;entryPerimeter=0;" edge="1" parent="kJDJlWwb6tZaWvkvZyPa-40" source="kJDJlWwb6tZaWvkvZyPa-11" target="kJDJlWwb6tZaWvkvZyPa-20">
          <mxGeometry relative="1" as="geometry">
            <mxPoint x="625.5153198242188" y="181.3939208984375" as="targetPoint" />
          </mxGeometry>
        </mxCell>
        <mxCell id="kJDJlWwb6tZaWvkvZyPa-29" style="edgeStyle=orthogonalEdgeStyle;rounded=0;orthogonalLoop=1;jettySize=auto;html=1;" edge="1" parent="kJDJlWwb6tZaWvkvZyPa-40" source="kJDJlWwb6tZaWvkvZyPa-11" target="kJDJlWwb6tZaWvkvZyPa-28">
          <mxGeometry relative="1" as="geometry" />
        </mxCell>
        <mxCell id="kJDJlWwb6tZaWvkvZyPa-11" value="DMS 2.0" style="verticalLabelPosition=bottom;html=1;verticalAlign=top;strokeWidth=1;align=center;outlineConnect=0;dashed=0;outlineConnect=0;shape=mxgraph.aws3d.lambda;fillColor=#ECECEC;strokeColor=#5E5E5E;aspect=fixed;strokeColor2=#292929;strokeColor3=#ffffff;container=0;" vertex="1" parent="kJDJlWwb6tZaWvkvZyPa-40">
          <mxGeometry x="566" y="313.25" width="92" height="109.5" as="geometry" />
        </mxCell>
        <mxCell id="kJDJlWwb6tZaWvkvZyPa-16" value="Policy Print&lt;div&gt;EVENT&lt;/div&gt;" style="sketch=0;outlineConnect=0;fontColor=#232F3E;gradientColor=none;fillColor=#232F3D;strokeColor=none;dashed=0;verticalLabelPosition=bottom;verticalAlign=top;align=center;html=1;fontSize=12;fontStyle=0;aspect=fixed;pointerEvents=1;shape=mxgraph.aws4.json_script;container=0;" vertex="1" parent="kJDJlWwb6tZaWvkvZyPa-40">
          <mxGeometry x="513" y="373" width="43" height="58.84" as="geometry" />
        </mxCell>
        <mxCell id="kJDJlWwb6tZaWvkvZyPa-20" value="" style="sketch=0;points=[[0,0,0],[0.25,0,0],[0.5,0,0],[0.75,0,0],[1,0,0],[0,1,0],[0.25,1,0],[0.5,1,0],[0.75,1,0],[1,1,0],[0,0.25,0],[0,0.5,0],[0,0.75,0],[1,0.25,0],[1,0.5,0],[1,0.75,0]];gradientDirection=north;outlineConnect=0;fontColor=#232F3E;gradientColor=none;fillColor=#1E262E;strokeColor=#ffffff;dashed=0;verticalLabelPosition=bottom;verticalAlign=top;align=center;html=1;fontSize=12;fontStyle=0;aspect=fixed;shape=mxgraph.aws4.resourceIcon;resIcon=mxgraph.aws4.general;container=0;" vertex="1" parent="kJDJlWwb6tZaWvkvZyPa-40">
          <mxGeometry x="566" y="89" width="78" height="78" as="geometry" />
        </mxCell>
        <mxCell id="kJDJlWwb6tZaWvkvZyPa-23" style="edgeStyle=orthogonalEdgeStyle;rounded=0;orthogonalLoop=1;jettySize=auto;html=1;" edge="1" parent="kJDJlWwb6tZaWvkvZyPa-40" source="kJDJlWwb6tZaWvkvZyPa-21" target="kJDJlWwb6tZaWvkvZyPa-2">
          <mxGeometry relative="1" as="geometry" />
        </mxCell>
        <mxCell id="kJDJlWwb6tZaWvkvZyPa-25" value="" style="edgeStyle=orthogonalEdgeStyle;rounded=0;orthogonalLoop=1;jettySize=auto;html=1;" edge="1" parent="kJDJlWwb6tZaWvkvZyPa-40" source="kJDJlWwb6tZaWvkvZyPa-21" target="kJDJlWwb6tZaWvkvZyPa-11">
          <mxGeometry relative="1" as="geometry" />
        </mxCell>
        <mxCell id="kJDJlWwb6tZaWvkvZyPa-21" value="" style="sketch=0;outlineConnect=0;fontColor=#232F3E;gradientColor=none;fillColor=#232F3D;strokeColor=none;dashed=0;verticalLabelPosition=bottom;verticalAlign=top;align=center;html=1;fontSize=12;fontStyle=0;aspect=fixed;pointerEvents=1;shape=mxgraph.aws4.gear;container=0;" vertex="1" parent="kJDJlWwb6tZaWvkvZyPa-40">
          <mxGeometry x="528" y="124" width="79" height="79" as="geometry" />
        </mxCell>
        <mxCell id="kJDJlWwb6tZaWvkvZyPa-28" value="DMS 2.0&lt;br&gt;PRINT&lt;div&gt;ENGINE&lt;/div&gt;" style="verticalLabelPosition=bottom;html=1;verticalAlign=top;strokeWidth=1;align=center;outlineConnect=0;dashed=0;outlineConnect=0;shape=mxgraph.aws3d.lambda;fillColor=#ECECEC;strokeColor=#5E5E5E;aspect=fixed;strokeColor2=#292929;strokeColor3=#ffffff;container=0;" vertex="1" parent="kJDJlWwb6tZaWvkvZyPa-40">
          <mxGeometry x="738" y="367" width="92" height="109.5" as="geometry" />
        </mxCell>
        <mxCell id="kJDJlWwb6tZaWvkvZyPa-30" value="Policy Print&lt;div&gt;EVENT&lt;/div&gt;" style="sketch=0;outlineConnect=0;fontColor=#232F3E;gradientColor=none;fillColor=#232F3D;strokeColor=none;dashed=0;verticalLabelPosition=bottom;verticalAlign=top;align=center;html=1;fontSize=12;fontStyle=0;aspect=fixed;pointerEvents=1;shape=mxgraph.aws4.json_script;container=0;" vertex="1" parent="kJDJlWwb6tZaWvkvZyPa-40">
          <mxGeometry x="686" y="439.84000000000003" width="43" height="58.84" as="geometry" />
        </mxCell>
        <mxCell id="kJDJlWwb6tZaWvkvZyPa-32" style="edgeStyle=orthogonalEdgeStyle;rounded=0;orthogonalLoop=1;jettySize=auto;html=1;entryX=0.5;entryY=1;entryDx=0;entryDy=0;entryPerimeter=0;" edge="1" parent="kJDJlWwb6tZaWvkvZyPa-40" source="kJDJlWwb6tZaWvkvZyPa-28" target="kJDJlWwb6tZaWvkvZyPa-31">
          <mxGeometry relative="1" as="geometry" />
        </mxCell>
        <mxCell id="kJDJlWwb6tZaWvkvZyPa-33" value="S3&amp;nbsp;&lt;div&gt;BUCKET&lt;/div&gt;" style="text;strokeColor=none;align=center;fillColor=none;html=1;verticalAlign=middle;whiteSpace=wrap;rounded=0;container=0;" vertex="1" parent="kJDJlWwb6tZaWvkvZyPa-40">
          <mxGeometry x="899" y="112" width="69" height="30" as="geometry" />
        </mxCell>
        <mxCell id="kJDJlWwb6tZaWvkvZyPa-35" value="AWS Cloud" style="points=[[0,0],[0.25,0],[0.5,0],[0.75,0],[1,0],[1,0.25],[1,0.5],[1,0.75],[1,1],[0.75,1],[0.5,1],[0.25,1],[0,1],[0,0.75],[0,0.5],[0,0.25]];outlineConnect=0;gradientColor=none;html=1;whiteSpace=wrap;fontSize=12;fontStyle=0;container=0;pointerEvents=0;collapsible=0;recursiveResize=0;shape=mxgraph.aws4.group;grIcon=mxgraph.aws4.group_aws_cloud_alt;strokeColor=#232F3E;fillColor=none;verticalAlign=top;align=left;spacingLeft=30;fontColor=#232F3E;dashed=0;" vertex="1" parent="kJDJlWwb6tZaWvkvZyPa-40">
          <mxGeometry x="282" y="64" width="777" height="521" as="geometry" />
        </mxCell>
        <mxCell id="kJDJlWwb6tZaWvkvZyPa-37" value="DMS 2.0 - HIGH LEVEL ARCHITECTURE" style="text;strokeColor=none;align=center;fillColor=none;html=1;verticalAlign=middle;whiteSpace=wrap;rounded=0;fontSize=21;fontStyle=1;container=0;" vertex="1" parent="kJDJlWwb6tZaWvkvZyPa-40">
          <mxGeometry x="282" width="535" height="30" as="geometry" />
        </mxCell>
        <mxCell id="kJDJlWwb6tZaWvkvZyPa-39" value="- Versioning&lt;div&gt;- Approvals&lt;/div&gt;&lt;div&gt;- Workflows&lt;/div&gt;&lt;div&gt;- Content Types&lt;/div&gt;&lt;div&gt;- Document Sets&lt;/div&gt;" style="image;aspect=fixed;html=1;points=[];align=center;fontSize=12;image=img/lib/azure2/compute/Image_Versions.svg;container=0;" vertex="1" parent="kJDJlWwb6tZaWvkvZyPa-40">
          <mxGeometry x="71" y="179" width="50.25" height="48" as="geometry" />
        </mxCell>
        <mxCell id="kJDJlWwb6tZaWvkvZyPa-5" value="" style="shape=image;verticalLabelPosition=bottom;labelBackgroundColor=default;verticalAlign=top;aspect=fixed;imageAspect=0;image=data:image/png,iVBORw0KGgoAAAANSUhEUgAAAP0AAABhCAYAAAAdkafEAAAAAXNSR0IArs4c6QAAAARnQU1BAACxjwv8YQUAAAAJcEhZcwAAEnQAABJ0Ad5mH3gAAFL/SURBVHhe7b1nkCNJlib2RQQCGkhkJpBaZ6UoXdVV1VXVYlqP3tm5uZsd2trd7fFu+ee4pBnNSDP+XJqRxj+kGcmzuzU7o91yd+5stRqxszPd2yN7plVpLVJU6kQKAAktIoI/XAcCyKyamZ7u3XqZjhfh/vy97/MI94CHBwDtX/zeWQctRYMDBxo0OAA0QNHNIlt4CynV4DgONE2D4+W4SWsQhrIfb30QHKp482wtFI8m+XcBYcVEE74k4yABmvF782xt3148+LqrKwFlQp4AaLbs1+3QS1rj9ubb2r5JXLjV4yHxVQIc1L/Kk7Vja9nfrwrHo/288HLdfHwcp9mMifbP/8MZp2VlbuWq5QL3kZB2y0FIuw8yE+WoH0Q8OonbRJEn4OvVqVrqZvxeZkL2x6PKk/B1iQsQoeca7Jm0DNAatzff1vbe4s1TQ1PzSu3uNlTxEzPKc99+waQ1bu8wre29RXQExwF0TdOgQQPRBLBG7TSNavJCMmjSNJIntJxkXxrxwzX1S2OwDLJJ7OUt70Rj0sDEPXPOXUqa8mMJFBt1KLTEiRWwPB6TFjEfXNM2kfkSCJKwHMGO8+W+5BhungysZKhwYMfFxZfh4baSD1FZ0jQmRyyjdWNnlrLIJKgNjSm0lFhMCbvgx7ScaEypTTTKj2kWQ47Z7IjG5ntSLvPFePKY1EapILAqPGWOSmJl1K/iWPVNilrwVJiQPKFdpRwXoJMrKuA4ZIslOLKWd9iQRvNochRNfTkOHDi0CtPSVZdrOYNsc1yuEpJkG7elVIFrh1xJuRZ8oVAjO8yWcGQGqk9Sh/lowZOaC5EdURxcqxYkhmQjxfKswGMT3zIXpd05PyWDBeS+VPcyErX1hY0scgm1Zu3OSmgMoilWuHiy6k1JbXdWV/bJXMixZTxCq3tEE/+MrZzHbdw7XFNrrqkZLSKJYqYZxIb5cPsmlUXbSHypiTCXkTaXMtH56MCuNGxsoKOJ0GK0oRWUwUTTSJ7QrisN18KF4ks4ETEVLCSP/bE9lyVzLFWkNoqW+Mo8NcqTapGoe55ozFYjMIUiNMPmdkRj8z0pl/liPJWY7gqCr8KTcmqiI5WB8eU+FHeumC6eNLyKnZSJHLLN252VUN/cF9dSLAaLBxKV1GNF/CscaUymobSNjITGoBtCy38sh/rldWhsAkACK/GlYQguhpHy5ByIgXChVCJl1Lccs4kne2U8BVpJe87pabmXFtXgtJoLyWZcZAtvUf08xpweIBvOAeb0Cs99/Cvizbe1PAFfBtTbwKVd+BnPlsdhfzxEhJ1X2GZp49flgNDb5wZuk7T27129tb0qzXbe/iR71/nVXqtz+mZ/bmnGw8TT/UH6hyKipgPPOT11pWg+pHADMkrR89Sl5RGW+CaO2DnNz22uxajEYokcOQkrtY7kVIkhx2ZYaC0+6srYZW5yYjGpe6qbeTJNYzJ6VNNatEzWki+Wy2NSG0WD46I7lIN89ZAT9U/tNQKQasoRKjlpk8ek7CTsNLbEjm9xB9RWiSnB5zxpmcRBMnAl0Qa8jtRmNISkZYQSNklkC4pIYStiuqq7M2Wegj7BJh0Lkkexyz5YUmJSFFwzbC5zuqWWiFL2Kub07jmCPE1RduiYRecltDrJZsVPNKeXEospmxAPXLv3hKVUgfoC1Lk80w4NzU3pDuHL+DEDFQypQ2NLPAXf5mrUoZREqXuPWLBXgkeNKVdQSJBsxoVr0cxqW8h1ZZ9ykWhjtkW2m8w9ctRSvkc3WJuRf5VnU3WeRGX1mDUVU+1yQgLQPFVIrtzyMnfJRqkutyG15ppa0HZX+JJMaiPx5YFEZdE2gm+TOd0SJWTPLWJO7x4f6GjCRhV1tOEGfCAhI5p6xXn8Kw3Tcmzqj2MUSIVmDJjwitxn85WG1pZjsZGX1RMGriTa4LGuNG6eJFN6FXvEQvwpMZsquPkyLrKWk1zW7krD3MqxaV2OUTansWUHyra0R2OKNqNMlbaVMdBKXDPsMhepCCSPaRKLaepQhUbKuJb/WA71S+vK1gIszeOaWlCMCk+eiKFw4cGT+pZje/Fkvl3oFPGY0z9dp2+Wj3BOrxa00M34vcyE7I9HlSfh6xIXIELv6Tq9t7TG7R2mtb23iI7gPF2nJ/ZCS5xYAcvjMWkR88G1NMKymASCJCxHsON8uS85hpsnAysZKhzYcXHxZXi4reRDVJY0jckRy2jd2JmlLDIJakNjCi0lFlPCLvgxLScaU2oTjfJjmsWQYzY7orH5npTLfDGePCa1USoIrApPmaOSWBn1qzhWfZOiFjwVJiRPaFcpx/V0nR5QqElzLbIheLp8kjrMRwue1FyI7Iji4Fq1IDEkG3mu61WBxya+ZS5Ku3N+SgYLyH2p7mUkausLG1nkEmrN2p2V0BhEU6xw8WTVm5La7qyu7JO5kGPLeIRW94gm/hlbOY/buHe4ptZcUzNaRBLFTDOIDfPh9k0qi7aR+FITYS4jbS5l8nSdXuapUZ5Ui0Td80RjthqBKRShGTa3Ixqb70m5zBfjqcR0VxB8FZ6UUxMdqQyML/ehuHPFdPGk4VXspEzkkG3e7qyE+ua+uJZiMVg8kKikHiviX+FIYzINpW1kJDQG3RBa/mM51C+vQ2MTABJYiS8NQ3AxjJQn50AMhAulEimjvuWYTTzZK+Mp0Erac05Py720qAan1VxINuMiW3iL6ucx5vQA2XAOMKdXeO7jXxFvvq3lCfgyoN4GLu3Cz3i2PA774yEi7LzCNksbvy4HhN7TdXpvacbDxNP9QfqHIqKm83SdXlAiLmVucmIxqXuqm3kyTWMyelTTWrRM1pIvlstjUhtFg+OiO5SDfPWQE/VP7TUCkGrKESo5aZPHpOwk7DS2xI5vcQfUVokpwec8aZnEQTJwJdEGvI7UZjSEpGWEEjZJZAuKSGErYrqquzNlnoI+wSYdC5JHscs+WFJiUhRcM2wuc7qllohS9vp0nV6hJsXm/JiBCobUobElnoJvczXqUEqi1L1HLNgrwaPGlCsoJEg248K1aGa1LeS6sk+5SLQx2yLbTeYeOWop36MbrM3Iv8qzqTpPorJ6zJqKqXY5IQFoniokV255mbtko1SX25Bac00taLsrfEkmtZH48kCismgbwbfJnG6JErLnlqfr9HIsNvKyesLAlUQbPNaVxs2TZEqvYo9YiD8lZlMFN1/GRdZyksvaXWmYWzk2rcsxyuY0tuxA2Zb2aEzRZpSp0rYyBlqJa4Zd5iIVgeQxTWIxTR2q0EgZ1/Ify6F+aV3ZWoCleVxTC4pR4ckTMRQuPHhS33JsL57MtwudIh5z+qfr9M3yEc7p1YIWuhm/l5mQ/fGo8iR8XeICROg9Xaf3lta4vcO0tvcW0RGcp+v0xF5oiRMrYHk8Ji1iPriWRlgWk0CQhOUIdpwv9yXHcPNkYCVDhQM7Li6+DA+3lXyIypKmMTliGa0bO7OURSZBbWhMoaXEYkrYBT+m5URjSm2iUX5MsxhyzGZHNDbfk3KZL8aTx6Q2SgWBVeEpc1QSK6N+Fceqb1LUgqfChOQJ7SrluJ6u0wMKNWmuRTYET5dPUof5aMGTmguRHVEcXKsWJIZkI891vSrw2MS3zEVpd85PyWABuS/VvYxEbX1hI4tcQq1Zu7MSGoNoihUunqx6U1LbndWVfTIXcmwZj9DqHtHEP2Mr53Eb9w7X1JprakaLSKKYaQaxYT7cvkll0TYSX2oizGWkzaVMnq7Tyzw1ypNqkah7nmjMViMwhSI0w+Z2RGPzPSmX+WI8lZjuCoKvwpNyaqIjlYHx5T4Ud66YLp40vIqdlIkcss3bnZVQ39wX11IsBosHEpXUY0X8KxxpTKahtI2MhMagG0LLfyyH+uV1aGwCQAIr8aVhCC6GkfLkHIiBcKFUImXUtxyziSd7ZTwFWkl7zulpuZcW1eC0mgvJZlxkC29R/TzGnB4gG84B5vQKz338K+LNt7U8AV8G1NvApV34Gc+Wx2F/PESEnVfYZmnj1+WA0Hu6Tu8tzXiYeLo/SP9QRNR0AGitvg335w7yGJ1Q03TomgGfYcLUTRiGr0UrucC3PEhMWjemW2Se7GDtL639e+NrtttPvPw0822Nwy0OADgaGlYN1UYVlmXB0ehbS3cArjUYmgHT8MNn+GBoBhx6dfEyfxw8RJ5gUP05B8n2AZrxe7ltZ+8twq6Jr7u6jFvTYNs2yvUSGo2GOF5u8wOev9o//70zjmen9mLZphF/niuNafiRCHejLzGCwc5xpGIDtH476LJ4+HfhbjfoNAF27x9YPHAcUNrBEfLk/oVosB0Lq5lHuLF8CbvFLVi23dIvy+2K9mCkexxDXWPoiiT3PbFU+UXg9paDtZtbfgF43NUVIM0XPQWYe38f8RkmCpU83nn4I6xmVtCwGs391VO8eba80hPxGJHaYvYOIgspJW9//L4AJnuO4ejQWUykjiAZ64PfF4RpmO5qTeKFpzWuX7Tsz/PjLQ6qjSouLfwUP3nwFubTdz2vNLquI+gL4cKhl3F69DwGOkcROODx+Yct7jPul3se1Bo1PNi8h9//yX9ErpSF5Viu8M2DTLuLsMecXqrMrZp7E3F2sLcTXo3TGUnhxPAFnJ14Gf2JUSTCSQTNkFLrqfxy5cHmbXzj8h/h/fkfuUo0mD4/+uKDuDj1Co4PPYPBzlGEA1GQN/VP5aOUha05fP/uW/jezW+j1qjTvvY4g43o186vap0+GevDyZHn8PKRX8eJ4Qvo6xh+2uF/BRLwBeAzTOlAE63pOnpifTg38QJenv0cJntmEQnEnnb4X4GUa2XMbT3E1aVLqFl1gHVDejRYAjlyknaV0s6n/SrW6cOBGI4MnsVLh38NU73HYeg+4u+pfOSSK2VRrhWlg0fyo/4oZvpP4IXpN9AdTT09Rr9CSe9t4OHmPazsLtN+9Qlcp5/pP4nzk69hqvc4B/FUPnpx4ODRzkPsFLf4ui471tP9x3Bu4gUMdo64qz2Vj1AcOLi3cQdzWw9JBu+D5DjxLsj7Ln1l79h4B4WkAV1cjdnVmY4J0hWeaPaUF83jmtrSysSE+uMJ0Bwg4AvhxPAFjCVnOICn8tGL7djYK2Vxd/0G0rk1+vQYOZ6xUBzHBp/BdO8Rd7Wn8hGKAwcb2TXcWruJ1d0l0QelPsnfbPN36fSVHk9xxSce2avHnJ6OCYrmQwo3kOfybu01p/cZfpwYuYCx1CyiwQ6J3lP5ecWBA9uxYdkWPdDtpdqo4N25H2Atu4RqoyYdPODUyAUc6p1FJBB1V/vEC2sndqH7OIvjOHhv/mdY3JpDtVFzvdtWr+PiWk621BJRyl4/knV6Q/ehI9yFr134HRwfOo94qFMqVaVSL+HO2mXslTNo0BsX+4sc2Vu8aOwv+/v9Rcm++OR219zrvw6CZhiTvbPoifWTm3MtpG7VsZlbwe//+N9hLn2XzOmhwdB1xENd+JfP/1scHz6DWJuB2XZsLGw9wHp2hdbfTwSzfXn+ksXQDZwaOYdEuLPtvQrLbmArn8Zc+j4K1YK7eB/5+c8bx3Hwg7tvYXn3Ecq1sqvdPPqrp3jj+EjW6cOBGKZ6j+O3Xvyf0BXphaEbSjmTWqOK1cw8/vjd/4CN7DJqVkU92SW/XngELm8c7cTbTyuROh8TlwPeNx3yjsfx7KytpBl/O3yGbmK4awxfffbfYCx5CH5fQCpVJVfK4OrSe/j6T/89itUibMeGBiBoRnB69Dx+4/y/Rn/HkLsaF8dxUKoV8BcffB3Xlz9EtrRL8gF+Mv68JyVa8m1t3yQOlEHScYCA6Ucy2ovfful3MNg5DNPwu2sBABw4KFYK+OG9t/CDu29iO7/lsnAjOwCefUT1RtqvWCvBsi0vA5duvhi0uwj/0tfpNWjoS4ziMye+hhemP4egGXabcNncW8G7D9/CX37w/6Jh19s35kFIuzQXj0GkvXgPfq1l/5NBgU8fVmoaFFpqFX8i3I0z48/jX3/qf4Cu6/xtnlscx8b81n389aX/giuPfoY6XwLSkYr14l88/9/i6OApRAIxd1Uu1UYFK7uL+H/e/F+xmVuD7djePF245cGPaMm2ZYO2bkevZmlnr0FDdzSJF6ZfxZdO/wbiodbvZCy7gfXsKv6v7/3vWM2uoNaoSu3uEVjCT8z+kX+ePmCGMNA5inPjL8PvC7rRcLFsCxvZZVxa+BG9+lAfnknMa8Dx0gZgStGu1QTGk/HjWuLEClgej0mLmA+upbumLCaBIAnLEeyYlfAlx3DzZGAlQw0YTU3iuanX2nZ4AMhXcpjfuofba1fQsBqceCQQw3hqGrP9xxHyR9zVFNktbOOtW99ErpSlN4y8IsokWJsInkTLzUt50gymlQZREo0ptYlG251pFoPF9Pv8GOoaw6eP/RoigfYcM6UMri5fwubeOhqNuhRDpQauBVaFp8xRSayM+lUcq77b8pSahJjT2EoJLeW4PoJ1+qGuCZwefRHRYAK6ppO6HrKdX8dc+hbWMvNwHJvfaKHRFGyiTN1TRK4I1+fMKTZaJDTlxGwJR2ag+iR1mA8HDtTnEWRzIbIjioNr1YLEkGykWLJhMtqLQz1HMJac8ux+sixsPcDVR++hWC1yn5qmoa9jEBcmX0IkEG17jAqVPSxs3cflxfdQbZB5Jg7Kk7U7K2GnD+PJtcSTVW9KaruzurJP5oLF7u3ox/Gh0+iKJKG3mF6C3q/YyK7i3Yc/RrVRhQ2bYmZHg3Jw73BNrbmmZrSIJIqZZhAb5sPtW+bp4ktNhLmMtLmUyS91nT4ajGOy5yiODD7Tch4P6ebd9eV3UalXREwFC8ljf2zPZUmFD5EMmHQVptbKlZXy5CMvrceT4MkqEfeiTTS0v9JwXEqisfmelMt8MZ5KTFFhvGcG033H9r3bni3t4sHmbcyl75ATgPKNhxKYSE1hduBk285g2RaWdhdwafGnyJZ3YNvkXoBgIms3X9EGvIQ1q9RmREs8aXWm5UrqsSL++eHiZsSX3xfAcNc4jgyegM/wSfiaZSu/ifsbd/BoZwGOTd6ik/BMUw4Ur9AyWIkvDUVwMYyUJ+fg5qtUImXUtxzTzZO/UkcCMQXMtprn9LTcS4tqcDzmuG6zqb4TeP3YP8Nzhz4Nrc0VZDu/gTdv/Tkuzf8ADceifpnHFqIUH3BOr/AkGZZVR7GaR7VRUdz7dBMhfwRBf+t7EK1FbhFvUdvtyT5PHzTDeP3or+PZyZeQCHfJ7pvk6qN38d0bf43Lj36m5M8OnMDrR34NL858Wsl3S7VewfvzP8b3bv4NMqUdmtuGpws3ofe4n6dvLXI1HRqg6chX9lCpl+inBoX0dQzi9aOfw2eOfQmhNsfTsht4f/6n+N7Nb+H6yhWppPn8aq//kX6e3qf58NlTv4kXp7+Agc4xt4EiG7ll3Fu/io3sEllGadlKLvAunE8imeIW7q5dxcbeKuepQUNXtAcTqcMY6hp3VzmQeOM7aPsdTJLRPhwZPI2+jkF3ERcHDuqNGv70/f+Enz18G9uFNB9kAmYQnz72Zbxx7NfRGx9wV1WkXCvi4eZd3F2/QW/e/SLF+yJyUNGgwaeb+HDxp1jNLKNcL/E+qmsGXph+Ba8d/jyODJ5wV1Vkt7iNb139C7x5629RrpWU4+V9PJnIJe1EPn9dfN3VHbiuWm0B0GzVbyv5pazT65qOgc4x/Mb5f4uTI8+1XQ8FAMexYTkWnwd9lPLhwo/w3Rt/jvvr10WmBrw8+2t4efYLGO+Zlc0/VqLRL7do9y7Ksht4sHkHf/Tuf8S99ZtwpA473XcUXzz1NTw78WJbHwDgwIFt27AduoT0sRMN//f3/jdcW75MOyyRZDSF37z4b3B+8kUE2ixlAsBP7n8f37v1LdxZvcFn8kQ8OrVr190/5Hc0vLswaeq0Hv5donZDj/7qKd5+fynfe6/rBp6deBUDnWNt54lMNE2HTzdhGv6PLOmagXKthA/nf4j17BLhqWnQNB3d0V5M9x3HYNd4U72PU/LpZtvO6jjk21beuf8m0ntrAGx69dNhGAaeGbtIbgC28cFEgwZDJ9+e83FL1XoVb978JpZ2F1FrVPipqWs6zoxdwHDXGPw+7zV5AHAcB8VqATdXr9FHXll/YH/u/iH1C75PS+kUTZ3Tu+byEHN6kkTfYechCUT9HXROL/l2oVPE49l7psk26J1COOLZe4dvSzZ026f70dcxgiOD59AZTnmE/HhIpV7CjeX3sLj9AMXKHueiAZjpO4GhrvF9l68+7lKpl7G49RB31q4jX87SY0SeSptMHcZU71F0Rrrd1T5R0rAa2C6k8e7cj5Ep7pJHkR1y4YmHOnBy5Cx64r1tz8OGXcedtZt4tD2HfDVP3tewfsH+5H5BOoVLS32E9iO5XwjtlYhjokVdpc+xPgjqi2vql2uGgdahr8Q5Ub/wdfpoMI7TYy+gv3MUgY/pZ+Qbdh07hU288+B7yJZ34MAGNPK1RB2RLpwavYhUrL/t8tXHXRw4yJUzuPzoZ9gpplG3GuQY6TrCgRjOjb+A/sRQ26f3PgmSr+TwcPMultlVnl4Bg2YYRwdPYKR7HGF/65UNy7aQLWXws4c/RHpvA7ZtiSuz9Eeusqw/EA2uRf8QV3i1X6iJlVG/imPVNymSMcjYaFhuTmMrJbSU4/oFr9P7NBPJaD8uTL7etqF/1ZIv5/Bg4yauL7+HcrXIqQV8QUz1HsNU73HEQgl3tU+U1OpVrGeX8eH8j1Gtk5UJxwH8hh+98X6cGj2P+Ceco2U3sJZdwQcLP0WxWoBlk5m4rvmQjKbwqZk30BFK8I7oJeVaCfPpB7iy9CH2yjnWG+hpzf5EHtliL16dhVpLV1amRSL2/Cqu+HD7JpVJH2SaYSMmwlxG2lzK5Be6Tp+IpjAzcAqjyRmYLZ5r/jjIRm4J789/H3AcPmpCAzrCXXhx5vPoCHd+oq/yALCVX8fttWtI59dhOxa/ynRFkjgz/jx6OwY+1sfoIJIrZ/Fg8w6uLV+CA3osNSAeimOqdxanRs4h6G//bnO7kMaP7v89KnXxoRZyRsh/LKd9/+AdgfYnokkcgs01t6eASVXXnF5UImXUtxxTI5tS36Wv1JFATAFT8ZjT0zGBjiZCi/kF2WWaDSgahjsncGbsJe68nZCY5Mm7j+oPAHaLW5hL38Fc+jZsOso6joOoP47R5BSODJxGoM3jwvgVYbfsBhp2/UDLZXWrhgebt3Fp4Sd8zug4Dvy+IAY7R3Fm7Dn4dLMpxq/8z3FQt+qw7IabkqfMp+/j1spV2FZD4dmfGMK5ief3fSy5WC1gaWcRd9duombVXNdK+Y/43a9/iA7R3D8YNqGl+Tp1LGzpVVm2oU7kmAwLx8ZeqSO2T53x11/YOv1AYgwvznwRrx79Stu39uVaEY+272Fldx6WYz3mFVUgUvEJau3E0H3YLaRxb/0a7q5fU5avJnuP4o2jX8GLM59T6rhlu7CJ5Z05bOZWyMqEFxDXEuZB8QmRaxKpNaoYTR7CeGq67cdeAWAufRdv3foGfnL/TdStGs8PmEGMJadwcfIVftV4PFwHlWb8B5G6VUd/Yghj3ZNIxnrcxYrkShn87fW/wt/f+Q5ypQwP1xFM4MWZ1/BPzvxm2w/VAMD9jdt489bf4od333QNps34vQ5zO3tvEXbOJ32d3jB8uHDo03jl8Jcx039K+PCQ26uX8P7c3+PB5g3ythNend6jUdwmihys0Q3dh2I1j3wli1K1wBszHu7ExcnX8fmTX0OqzUMqdauOy4s/wU8fvIn17DIMXXfhOxgOIfJJ0NzMspi6H5+a/SwuTL7c9vsI6lYNb978G/zg7newtD2ntKPPMBELxNEd60HDYt+q2l68cHmeL23Fo108HFuOhVdmP4tnJ19Eb7xfdtAklxbfxXeu/xWuLV0CAM7z2NBpvH70C3h+6mV3FUXylRx+ePctfPfmN7GeXeX53u3fBr973wHwMV+nb3mlJ+Ld+dyYu6O9+LXT/wrnD72BaCAulQhx4KBaL+OvL/0nvDf3Frb21nmjNDlu0q6HgdzFTbi8ybaSY0PP4tUjv47zk6+4ixTZyC3j767/GX5w99uo1SsEFxMXEPlgE54eI3ZLacZ/qPcoPn/yqzg7/kLLubgDB+uZZfzZB7+Py49+ym/gNYvHcXU3l1f7t8FPsmW/bodeInhq0JCM9eI3zv8Wzo0/j3CL5VKHfp7/j9/7A3yw8A52CuKz7mF/BJ878WW8MvsZ9Ha0HrwB4NbqNfzdjW/g3bkfE6wOPNvdW1Se+11ZD+JXaW6v9lMN9j0+7d5peszpmSbboPMHKHMQtk28TfedwkhyumWHBwDbtrCyO4/769extbcO0FgkAMEgNInJQ0hzFvan1iGAiSYvZGSV5jcSbu7TIXd6p/uOY6r3qILXLbZj48byB3iweQu1ekXywXzKGhIGxpM2qoydcZE5KtyJT03TcGbsOUyk2t8gtawGri2/j5WdeVRqZQmf4Mu2CQyKRcJFA9O2Zc0ptZnMk/8R4VxERc6ZtYHQEiY40HUdz068gMnUTMsOD/pO5t7GbdxevYadfFrhMJGaxmz/sX07vO3YuLN2A4vbc+RtPYMrM3BzdB0ftY1Yu7l48mz5GHgl2sb8MFBAzB/FwjTDIMwYNoGVWghOHNfPuU6v6Tr8ZhDHh8+jJ976+W/Qt8YfLnwfO4VNcYHkmsakI7685Z3EHUxelzllStHibqnCUwMmemYx0TOLjnDrh1Rsx8ZOfhO31y5jPUOf3mM+uJbumrKYbkc8R7DjfLkvakX5+QwTA4kRzA6cRDLWKztTxLIb2KvkcH35Q+yWtlW+vA2oX6Vx5APNtEDPXgVaN/YWPDkJakNjCi2ST/chFurAieEz6IomVVcuqdTL+NG9t5Ap7oAce3YOaDg/+TxGutt/VsJ2bKxmlnB/4w7Se5sunhJf2gacLz/PBDVRgZ8QKk+Jo5pYGfWrOFZ9kyKVp8BGw3Jzjl4qoaVSu/9c6/QhXxjHh85jLDnb9ipfrZexmpnHrZVLyFcy3AUNLXyK6Gx8EiZKkm3cllIFrqXRj494DqDpODlyAf2JkbYf/W1YdVxbehdrmSXyaTzeHGIUZSMviUHquRC5QMkcXHDphgMHIX8YL858Bj2x/rafYShU8vhw4cdY2V1ApV7iVwt+JSEweZ4rgwWk+W48courrS9sZJFLqDVrd1bCr1JAyB/B8cFnMJAYavujJ8VqAQ/T93B/4zaK9Pv6HTgIGAEcHjyByZ4ZxIPtnz1gn6Rbz60oqwRefBlbT77uHa5dfKmdQ4tIEscG/Pg0NbqkKQquGTZiIsxlpM2lTJ54nd4wfEhEknhh5vPojva2PCEdOMiVd3Fp8UfYzq+ibtWYC+6LaOZbiqlgIXnsj+25LJljqSK1UbS4k3144BQ6wymprip1q46t/DouPfoJdoqb9Ok9GrPVCCzTAmlbuuVKzeh5rgaEzQiGuybwzOhziAZbD6oM488efh975Sws21auJhptBpFEGfjVibWZq/nAeAq+nKfCRNZyDmVE24CXUN+mz4eeWB+em3oZ8XDrL1px4GC3uI0rj95HrpwlH/zRNOiajkgwhguTL6In1gef4X0egn48+NHOAq4ufYBMMSMKOHVxNNQ/D760DYSmJYwn1zQEbW+habuzKz3Xoi415u0uNMVDcYu+S1+pI4GYAmZbT/p5+miwA8eGzuO/ful/RtAMtzxYlXoJd9eu4I/f/XdYzy63XINVw3ncyHCLUtziRoZLswCapqMzksRnjn8VL858Dok2b+0r9TJWdufxN5e/jnKt0B4TF7nhvKWJLwMqGcTDCcz0ncBrR7/U9kcjdwtbeH/hx/gv7/x71K0G7SJkYOuJ9SMa7IDOzqi2IhC1Pfxc9ue5nwR8IYynDuFLp7+GoBmSBkhVitUCri19iD99/w+wnl2Bxb7Q0x/GoZ4Z/PZL/z164n1t73ls5Tfx5q1v43s3v4VCZU/B3Z5v8/nVXv8D/Dy9Bg0TPUfxxrGv4rnpz9IRxVtWMwt45/538I3Lf9CyE/LGZNKylVzgXTibxbsx/b4AxlOz+J3X/xd0hLtavksBfTtYrBaQK+1A0/SWJ+XB5PHq+n0BxIMJ+M1Ayza2HRu3Vi7jb6//Ga48epfna5qOoc5RfP7kVzGemm7bGX6V4jP8iPijiAZbfxmnAwcPN+/i7dvfwVu3v03a0XGgaToGu0bwyuxn8IWT/7TtFM2yG7i3cQe/9/b/iXR+E5blffEh0nzetD/fmu29RT5/D7J6ss9g4zY/4GrCE63T+80Qzk+8hq9d/O/QEWr/jS3vzf09vnXlD7GwdecAjcLEo1HcJop4NLoLN2k7MgIPdI7i+alP40vP/FbbE4UJefruoxcNEG/pWsheOYsf3P02/urD/4xyvchPlkgghjOjz+G/eeV/hK4ZP+dg9csV8va0NT7LtvDWrW/hm1f+DJt05QcATMOPM+MX8JsXfht9iYG2Ptazq3jnwffxp+//IWzHaT5fqHifb23OL/c+bX/nY7xO/0Sfpz/UcxTHhi8gGmj/xNN69hEebt7AevYRn88QFzSmyHBpOTYBQ0rEn4xYMGDCK3KfLKbfF8Bg5zhOj5LHNA8imqZD/xUkTWv/GCkA3F67ghvLl1BplCW+wFhyCmcnyJq+oRtNvj9OaT+Oc+l7uLdxC7ulHXJcNcJzoHMYM31HkYy1/wi37dhYyTzC9ZXLsOnnLcQ5QjbZhjiXWp1t1Iqdo3yflirnNtt1zeUh5vSiX7j6h8STnP+ypni4GcUm+XahU+Sx1+mj/him+05hqu9E26tk3arhztplPNi4Tj7MwO5SMr80Fs0QMUhAiomMUxyT9KfWIYCJJi8khHrX3nEcdEZSGEtNoy8x4tEcnyzJFLdxb/0GHm3PwbZtfow6w92Y7juKqb72zx583MVxHOQrOVxafBcPN++i3qixE4J8J0DPNA4PHN936rKeXcW99Vt4tL2gnBPi3KanDdkT54v8J/eLprrkPGTtD3Zu82x6LtPy5kTPX94dKCDmj2JhmmFo6h+8nJ7zJJdw4rieYJ1+KDmFid4j6I62XjN2HBtb+TXc37iG9eySMtqBj37EN8sQo5K65Z2kkZbjZc65S0mLUTUV60N/x3DbpaFPijxM38Hi9gPkK1l6rAjHsdQ0pnqPoLPNDcqPuziOg0q9jGvLl3Bj5TLS+U3pBNDQFx/AVN8RDHWOuqsqYtkN3N+4jTvrN1GsshuxLNFzSJw2IpddTdmZKPeLpgqif4grPD1HPRMro34Vx6pvUiRjkLHRsNyco5dKaCnH9Rjr9JpDfjDg+NB5DCTGoLe4Ww8AtuPgzuplLG3fR7G6RwcZOpKJQYcGcGdQPFyrJSTJNm5LqQLXYvQL+SOItHmm4JMgjmOj2qjg+tL72MyukRagPIO+EA4PHMdo8pC72idGLNtCoZrHwtYDvHnzW1jZfURuvDmA5mgwdR9ODJ/BRGoKAbP9JyJz5Sxur93A0g65yrtODC5qrjiz2PVSnGe8qdUdrqm1dGVlWiRiz6/iig+3b1KZHGOmGTZiIsxlpM2lTA68Tm/4/BhMTODEyEX0dgxzB15i2Q1cW3qHPn3nNWehhmxDKRAxoWAheeyP7bksmWOpIrWh2qZfwvlJlppVw/LuAu6sX0emtM356pqBmYHjmO47ge5o+0+pfZylVCvg1upV/NF7/wkPNu+gUi/RE0CDbhhIxnvx/PQrmEhNuasq4sDB7dXrWMmQH4Hkc112bjDhF1n5WtnqbJNOLVqRaFrCr6hM0xAa7WNc03PSs38olUgZ9S3H1Chu0XfpK+Mp0Er6MdbpQ2YE5yffwMWpzyARTvIfPmRmDFClXsJ8+ja+dfXr2C1sSr91xi09RQ13gLuTSnHz0gbfdS0RdkV6cHToLM5PvIJe+tXR/I3Gx1w0TYfj2MiUdvCju9/B1UfvIV/Zow2nIeAL4NWjX8Qzo8+hK9oD57EHN3EEvE6DX4aQE5PIXjmL9dwK7m/cxr3129gupPnnHJgEzCDOjT+H1458Ad3RFP3NQ1XY+VNr1PDnH/xn3F2/SdpJsnCfj+35Np9f7fU/kHV6n2FiNDmLRDgJn2Eqn0UHtYGmoWHVsJVfx9ruAup2nTtq1QlZIymt0rKVXOBdOJuluTF9uol4uBM98QEkwkne4w/mzy3N/pl4+2u2exxhB7tcK2Fx+yHylRx92Il0HZ9hYjw1g85INwzd13SMIB1Pp92PTrTSTX68dbt28RJNI8ezWMkjX9lDtriLbDnj+YUhPsOHka4J9MbJT3Lzh71kALoGx3bQsOu4v3EHhWqe/HYfw+PBR5Vm/N48W9t7i7Bz3EvS7uoOXB2mLQCarfptJQdep9egI2AGyV1iDXBs6ddKKTZd02A7DhpW7QkbhYlHo7hNFPHw78JP2k6c7IAG0+eHYzvNAfi+h18qLve0emt7bxH23v4kcciXWjo2+XU1y2ooFTRHg6Zr5E62ptG7+TjQSdAOtxcuz/OlrXjwlC8CUid1mq4KaoNoIPeW2Lsei19Rm3najg3btvhcV8jB+ArxsHdXVxro471O3/JKT8S78zVh5uIdRBYO+rGuNK6TwF3chGt/HKp482wt0gjMxAVEOal/AZ+n9+bZ2r69ePB1V1cCtrjiNJnLft0OvaQ1bm++re2bxIVbPR4SXyXAQf2rPN2DTbPs71eF49F+Xni5bj4+jnQtE+1HxGNOL1XmVq5aLnAfCWm3HIS0+yAzUY76QcSjk7hNFHkCvl6dqqVuxu9lJmR/PKo8CV+XuAAReq7BnknLAK1xe/Ntbe8t3jw1NDWv1O5uQxU/MVPn9PtLa9zeYVrbe4voCM6TrNOzpGn0LiLXcpJ9ibulRFO/NAbLIJvEXt7yTjQmDUzcM+fcpaTF3VIFG3UotMSJFbA8HpMWMR9cS3dNWUwCQRKWI9hxvtyXHMPNk4GVDBUO8h1hOdGY3FbyISpLmsbkiGW0buzMUhaZBLWhMYWWEospYRf8mJYTjSm1iUb5Mc1iyDGbHdHYfE/KZb4YTx6T2igVBFaFp8xRSayM+lUcq75JUQueChOSJ7SrlON6jHV6scOGNJKnOeT31ABdFDc9IUTqylXJBlGaA+nDLBQPKwT5+CQ08n10JMk2Yk8RJYb0lBINzvhCoUaeRyANS0dHytPtk9RhPlrwpOZCZEcUB9eqBYkh2UixPCvw2MS3Q3E7fB2YHRuS58pgAbkv1b2MRG19djKqz20QCw2AzzAQDcYQ9kdhGn7hl8YgmmKlWBx6Tuj0T3PoFZYntd1ZXdkni0G0YKPRn/ViHYWJsCCvJFQzX25DdzRHg6FTjBQ/pJgyFpEoZppBbJoaXdKMp4svNRHmKnp3KZOWc3qHHlCHvv3RdR9SsX6E/FEYug+WXUelXkbDqmO4ewqbuSVs5FZg2XVp7HH7EzrgCyERScGxbViw0BHsguU0sLh1XxjS79/r7xxBprCN9N4a/3ZXtz+ZhAYd3bEemEYAxWoee2Xps9OeQniauh+xcCcGE6PY2FtBprCtLAklY30wDRPFagF7pQwZNr2ANE0v6Nt3j3bxFtkhEa8w7ewBIGiG0NcxhFSsD9CAzdwaMsVtRAIx6LqBnUIalXqF1PYKwHXz9IkB6Ah3oiuShKYZ2M5vIBrsQLlWRL6SQzzUiWNDz6AjlEChmsej7TnMb92XOiGTZvzhQAzjyUkAwNLOAqqNCjrCXeiKdKNhW4DjkPPQsZArZbGd35S6ZTNuxwFC/hD6E0PojnRjLv0Qu8VtYsv5NONoJQ7Ij6N0R5M41DuDmyvXkStnW350nEizf8/mlqd77Q1VnmyawmiLw6SIceIL/b+rVvZyStfpD72BiZ7DSMUGEQnEEDTDCPmjePnwr6NY2UM6t4K61bxu6kU2Hu7CdO8JxMNdCJohHOo7jnioC3Pp23ywATSMJmdwbuJV2I6FdH4NNatKHCjuxMHVHA2m6cfZ8VdwqPcodE1Hem+FfLLKo5Fk8fsCGEyM4tnJV5AvZ7Fb2ORLYg4czPafQjLWT37TvlZAPJRAw27Ast3r4c18ZTENEx3hLmgaYNNf633SgwxI9CWzoD+Cke5JXDz0KsaSU+hPDKHeqKFm1THaPYlkrBe7+S3y4AsX4cErbLNo6E8MY7b/OHrifShU85jqPQIHNuqNOg4PnMAL068hEojCdmzslbNI59j3I7YPkIym8OL06xjqHCWfn7caGOocxeGBExhNTmA8NYWBxBAigSgaVh3p/Abx2abd48EOPDP6LJ4ZO4+17BK2pS/VbA/He9CLBCOY7j2ML576Ch5u3kOukqWrKuqcvtmfW+TIqnjhkvvHwUQ9rh5zeupK0RpC/jCem/ospnpPIOgP8ytuOBBFX2IEsVACuq7DZ/gQCcQQDcQQMIMwjQACZhB+Xwi6psHQfQiYAYT9MXRGU+iMJBENJtAZTqIrkkLIjCASjCHgC8LQdIT9EaTi5IsgDM0HUzepTRwhMwxNMyhO0gCariEWTODiodfw6eP/DKdGLyJAv+TDb/gRMEMImSEE/WHoug7TMBEOkJjhQARBfxipWD/CgSj8ZgihQBQ+w4QO8sUbneEuhINR9HcM49zEp9AT74ffF4BP9yFgBhELdCAciMDQTdqeJG44EEXYH0XQDKMr2otnJ17CeIp8vZPfF4DfF4Cpm9ChwdT9CJgB+A0/fIYfAV8Q4UAUQV8IPsMPv+FHNEji+AwTGnRCX5oPDySGcfHQK3ju0KvYLaaxnl1BqVZE0AwhGetFR6gTfjMA0wgg5I8g5I8iEozy4xXxRxAKRMhbYcohZIYRNiOIBeMImRH4dANBM4REuAuJcBfC/gh64n3oCHWhLzGIi4deRrVRwVu3voU3b30Tc+l7/DQMmgFEA1FEAhH4DT9A33YHzCAigSjioQSSsR6k4r1kqRhkSa9hNzCeOoRz48+hJ96PWqMKy7EQMsN0GhGB6SPfj6BpZCCPBKKIBKIIB6JIRLrQ1zGAeKgTYX8EQTNEP+2nwe8LIGSGEPZHEQ1EEfQF+VTAMHwImSFEQzGE/WEYhg+GbiAaimGocxQhfwi6ZsD0+REJRBELxeE3A9B10pEMXUfQH0IsFEMkEEXQH0TAJG0dMMkSpKZrMH0mgv6gmO9TImwaRTTpkxrtzqzrU2tXiShlr8aJL/b/rufI4RpiwmYU5yZexa3VD/D+3Nu4s/oBMqUddIVTmO4/hYebN7G6O4fuWB9ePfJPcGToHEC/lni0ewYDnSPYym+gJz6I8dRhdEd7sVfOoFjdQ61eQW/HELqjvYgFE3h28lU4cFCq5pGIJDHcdQjr2SWsZObR1zGEsxMv4+z4i4gGE9jcW6bvLghQ0+fHscGzGEvNwGeY2CvvYiO3jFxpF+M9sxhPzWKi5zD6E6PYKaTRnxjBxak3cGL4AmLBDti2jdHkIUQDcYylZjDSPYlyrYRCZQ+RQBR1q45YsAMvznwWrx75EqLBDhSre7DsBiZ6DuP1Y19GX8cwirUCcuUMQmYIh3qP4lMzn8Oh3iPo7RjAVO9RfPnsv8RYcgq6piPoD6Mr2oOQP4xcJYux5CEMdo4hFkogFAhjLDlFvzKLfAPOYNcYPn3sKxhNTqJSKyFXzpDnJvjx0jDVdxSnRs5jp5jGX334ddxavYqN3Aocx0YkGMdeOYtitYChrlEcGzyDIwMncGTwNGzHwnhqiv6M9SGsZpYAOJjqO4rDAycw1XcYz029ikS4E9lSBkF/CL0d5Mc+F7cfkic1NQ0j3RN4ZuwCKvUyDMMg32rjCyCd34Tj2Dg79jyem3oF46lpWE4DW3ubCPiDODl8FmcnnsOxwZMY6hpDtpTB3fUbSO+tY7ewg7XsMsL+MEzDxAfz7+DH999GqVrCqdFz+NT0a+iJ96NSryBbykCDhhPDz+C5Qy9htv8oOkIJ8lt+HQMwDRMj3ePo6xjAVn4TmqbjSP9xHBk8jqODJ3By5CyC/hCyxV1UG1WkYimcHb+IV2Y/jf7EIAqVPZRrJSRjPTgxcho/uf99ZEo7GE9O4pXDb+Ds2EXYdgP5Sh61RhWdkW6cG7uAT02/iqGuEXRFkuiOJtHfMYCeeD9ypQxMw4+x5CSmemexU9hCw2pI83S5O3r0V0+ROrAkxskvDv4uKXaND3Q0If8agv4Izo6/DMPw8ZtgpmEiGoxjuv8kVjPz8PtCOD32Ar8hN9A5hkQkiXgogWcnX8NeeRcnRi6gt2MYPsOP3vgQkrF+ZMs7GOwcx0DnGKr1MoJmGDP9p1CzKvDpPvQmhpHeW4GhGzgxfAGd4SRKtRIOD5yG4wCFShblehkagIAZwgvTn8dOYRNb+XU07AZMI4Dl3Yc4Pfo8Lh56DcNdk6g2ygj5w3j1yJfQFenBXiWDbHEb5XoZZ8ZfhOkLwDRMJGN9GEtO4d7GdRwbPoOBzlGYvgAM3UAq2oeH6dso14sYTU7j5Mh5rGeXMNA5ikgghoAZQF/HML5y7l/B0AwUqnnky1nouo6x5DR2CptY2L6PzkgSh/tPAABWM4t4ZuwFTPUdQTyUQEewE5898VUkY72oWzXEw52Y7juK7UIaw13j6Iqm0LAb2M5vkCNH3/GYhh/xUAIz/ccRCcSQLe8gX8mhO9aD8xOfQizUgWq9jBMjz+L40BlYjo3hrjEcHjiJRLgL8VACw13j6AgnsFPcwsXJl3B69ALCgQiqjQpOj55H3aoCjoOAGYSh+1Co5nFm7CL8vgAsx8Jo9yR2izvYym9gpHsCXZEkdgpbOD70DI4MnYTtOAj5QxjsHEU6v4Znxi7gzNgFdIQ6oWk6JnumsJ5bxd31m8iWduHAgaHrONQ7i2Q0hUc7CyhW8zgzdh4nhs8gV86ir6Mf3dEk6lYNU32H8dqRzyLsjyBXzqFcKyFghnCoZwalWhHhQBRDXaNIRDqxnlnB81Ov4OTwM0iEu6DrOk6PnMXm3jrCgQhOj5zDsxPPY2tvExM9U+iMdMOn+2AaJo4NnsC7c+/gUO8MzoyfRzLag1KtiHPjF1FrVBEywzgxfAqfmn0NhWoeM32H0dvRT94d+oN4aeZV3Fm/jWQ0iXMTFzGWHMeHj95Dgz1G3epKT9+Ni3fppJz0P5IntJADf57ecWxYdgOp2ABm+k/h8MAZ9CfIxxobVh2xYCfGU4cxkTqCSq2ESr2E4a5JJELd2NxbxV45g5dmv4ThrinkSjvY2ltFB31b6Df8sJwGdvIbuL78Lt6de4s+bnkI3bE+NKw6oGkY6Z5Cf4J0OttuoCc+iNOjzyMRSdE5l46AEcRg1xi92dhAPJjAaPIQNOiIBOII+aPYq2SwvDOHk8Pn4fcF8WDzJi4vvoNH2w9hWTVYdgOLW/dwefEdLG0/xGDXOMKBKGLBToT9UdTqZazsLiKdX8d8+g4cx8FYcgq98UGUakWE/BFM9x3D6dHnMdlzGLpm4NrSe7i29DM83LyF1cwj7BTSmN+6i5XdBTiOje5oD0L+COBoNFYC8WACnZEkuiJJ3F65jL1yBoOdo+jrGEapmoeu6ZjqPYqp3iMwdBNg9wYcB+m9NVx59C5urlzGSPckXjn8BRwfOotYsAPRQBzxYAJhfxQRfxSFah7Xlt7D8u4CuqMpZEsZ3Fq9gkxxG0cHT6M7kkI0GEelUcGDzTv4cP4dlGpF9CeGkQh3oVKvwHEcmIYfqVgfdF1HpriDvUoO69llPNy8i0Ilj2gwhr6OAZwafRbxYALVegU+3cR03xG8OP06To08i1KthJsrl8n32he2oWsadLoyBDpP1jWdf/tNMtaLkyNnEQt1oFIvIxbqwEz/MZwcOYfDAydQqBZwY+UKri69j5XdR9A08oGw+a37uLN2A6VqAUcHTyIciCEWjKFUK+LO2g1cWfwAphFAT7wP032HMdw1ir1yFu/P/xQPNu+iJ9aL6b7DCJlhVOoVdIW7MdN3BKbhx9WlS/hw4V1YdgMzfYdxYfIFTPZMYzufxnvzP8Pi9jx/xHgnv43BzmEMdAxgLDmJZDSJfCWPeqMO2OJ4OhCadEt5tULuu9IKDskl7xXIDQ84j7NOr2kaNE1HqVZArryLQjVHRnpopHOFEmLubfjg032oWzVkiltY3LqLe+vXMNN/Cobhw2pmAeu5Jb7M4zNM1BoVrGUXcXPlA1xfehfpvTWEA1F0hLrgODYMzUB3tBdBMwS/EYDfDCJX3uEf/AGdkyVjfegMJ9ETH0R3tBedkRSSsX4E/SEYuoFsaQfz6TtY2Z3HaHIaG7ll3Fr9EPc3rmO7sAEHQKGyhwcbt3Bt6V3MpW/DshsIGGR+17DJTbxcaQeFSg7b+Q3omo54qBOaRu4n1KwaGhZpk2SsD/Nbd3F9+X3cW7+JlcwiMsVtlGtF+pZ1C5U6+dYbyya/IW/bDbqtQdcNZEu7uLz0LvKVHLnv4Y8gHIihXC+h0iiR3wTU6ZWAzgVLtSLmt+7h+3e/jdurVzCQGMGp0fMY7BxF3a7DgQOfz0S5XsLy7gJurlzB4vZDlKpFrGYWcWftGlazS4iHEogG4qjWK1jeWcCN5Uu4s3Ydc+l7MA0TIX+E/qY7EU3TUK1XkK/soVIrIVPaxVp2GTuFNCzbQjyUQG+8H7qmwTTIj2hW6mUMdY2iv2MQq5klXF36AA/Sd7CRW4WuGeQbjlxvQ23bgqbp6Ah2oK9jEJbVQMgMod6ooVovIxqMYyAxiHsbt3Ft+RLub9zBVj4NDRoq9TIWt+dxZ+0GNvfW0RFKIGgGUbfrWNldwvXly7i1dhXpvXVE/BEMJIZgGn7c37iDe5u3cX35Mhp2A8lYCkF/CLVGDclYCsloCrlSBpcfvY+7G7exsDWHRLgT032ziIc6cHvtBm6tXsPttRvIlHZRrpextPsIuVIWU32zmOqbQbVexa2167BsC45GnptzX+nZu3C5SUiXla/trlJ2z+tx1uk1kOe6F9K38cO738D3b/0l7q1dBUBuwBi6D7pmAHDg032wbAs3lt/D3fUrqDXIL4KW6yXyc1D0ZhUTBhb0AxWm4UetUUatUYVD/TMhX30MVGolXF78MX5y/2+xld8A4CAaiNNv9CEfNinXiijTK28qNoiAL4ByrYBiNQ/bsWHoPvKbbo4DQzOggTxzUGtU0LBqsG0Llm2hXCvyt04Mr64Z5O0dvYlnOzbqVg0+3cDS9kN8sPAjLKTvIeALoNao0jYiN8UAQNcN+I0ANF3nV2hDM6DrZMDU6IdQNGgo1QqwrQb8viACZhC6psGnG1jLLuG9hz/E3bXr8Gk+hP1hitGBrhmwbRuPtufwjSt/hIfpO+iKpDCRmoFlk1951aGhbtVQq1fIOeFosGwLtm3TI072AQeWY/FfzdV0HdVGBXWLDB7kgsCOEEGt6zp03YBBvw6LXmiIBeOrG9jcW8fP5n6AWyvXaE3igV3dNc29Ri9sDE2Hruv849K6buBh+j5++vBHmNu8h0ggSr7f0HH4zTpdN8i7BIrBsi006ADbsBqoNCpo2HVYtk2+W1/TYOgGGlYd5XoZuqbDsm3667oW6VYauXCRt9WUP3TUrTrqVkPw4jgMmLoJDRr2ylncXb+NIwPHMNI1hlw5h4X0HGLBOH3+BU1XetYnlf4Kkid0cymTA3+eHpoO0/AjFIjBbwQIUw3QdR1BfwSlWgHZ0jb2yhncWH4P373xJ3jz5p9iLbuIqb5jeP3oP8USnb/O9J9ET8cQNE0nn5RybHSEujGWmsVYchb9nSMY6Z5C3aohV9pBgN5hrTWqKNdKuLd+Dd+88nW8dfMvcX35fRTKWQAaOiNJnBq5iLXMI3zjyh/i93/8f+DNW38BDRqenXwZ8VAX/L4g/EYADbuOlcw8jg6ewXhqBpFgHEF/GD6fH35fEIbPJCet7kOAfjUzG5B03YCuaeiMphDxx1BplFGkV7ZvX/1jfOf6n+Ddh29jbus2GnYDLx/+Aoa6xhELdpJVCd2HoC+IsdQUEqEu2I4NXdcx0DmK7kgK4z2z6Iqk4DhkAA34gtB0HdniDnYKaWRLO/jGlT/Ct6/+CX547zvIV3I4OfosTo9eRMgfhgYdiXAnhrrG0B1NIRqMIegLwrIbqDWq8BsBsiKhGzANP0yfHwDh5/cRfgblGzCDqNsNRAMxjCenMN13FLFgDMcGn4FP9xF/Pj98uglD08lKhuGDTu/4G3QAM31++OggW7fq2C6k8c6Dt/Htq3+Gt2//HX7y4O9RrhUx1XcYUz2zSMZ6MNk7Tb6SjZ+Y5Jzz6T6E/GFA01CoFpArZVCtl/H9O9/Ft6/9Od558DYWth7Ap5t4efYzmOyZpu+OIoj4I/wDO7qmw6f74PcFOF6/4YeukTvzEX8U1XoFO4VtBMwQTo+cQ9gfxunRs4iHOpAr51BtVBALdmC7sIVitYBUvA9HBo6hK9qNkyNnUG1UsLg9B8u2cW78IpLRFGYHjqI/MQBDN1BtkCt7nK5+leslJCKdeHH6ZcRCHeSicNA5PXvlc3remyX9GOv0QV8Ix4aexdbeKlZ255AtbcM0/OgMpzCemsWd1UtYSN9GOBDDhUNv4PjwBYynZjHcdQh9iVE4joO/ufz/QdM0JMIpxEMJ1BtVNKw6NnNL6Ah3Y7hrAsPdkzg2eA75ag5XH/0UxVoeqdgAVjMLuLN2Bcl4P2b7T+HEyAWcGn0OllVHoZpHvV5Bd7QXhweewf2N63i4eRvFag4hM4KuaA8CBnn7Vrdq2MpvYH7zNtJ7axjqmsBocgpTvcfQEx9AtV5CZySF+c072C2mEQ8mMNw1gZsrH6InPgAHQDq3gu1CGidHzqO3YxA7+U1s5TcwlpzG8eFncWb8RSTCXdgtbmMjt4Kx5DSGuydweOAUQmYImeI2gv4wpnqPolIvYbdI7tSeHHkWw90T6O0YRLa0i/TeKup2HWF/FDeW38dq5hFs28ZI9yTOjr+AZ8aeRyLUhWSsF5M9R9Ad7cH9jZuo1ssY6BzFuYkX8ML0Gzg5cp6+vbyGh5t3kIr3o1ovYzu/iYAZQLlWxMLWfSRjfehLDGE+fQ87hS2kYn3kfsLqVfR0DGCoawxDXWOY6j2McCCCnz38AbbyG4iHEnDoj1EMJEawnltBtriLwc4RrGaWsLK7iL6OIRi6gZsrl7GZW8PRoVM4OngKJ4bPYrBrBItbD1GzqhjqGsNM/1GMdk8gGohhefcR7q3fQq6UBQCYOrnrHg3G8Wh7DgtbD1G3ajg1cg6HemdxevRZdEd7kM5vYDWzhPHUIUykDmEsNYnOcDdsOPD7/Li1eg3legmpeB+6It24unQJvR19KNQKWM0soVIvY6b/MHaLO3iYvodyrYjZgWM4OngSh3pncHv1Jq48eh9wgMP9x/D27e8iW95FdySFk8PPYLrvMAAHP7j7Fi4vfoBSrYiJ1CEMdg5juGsUPt3EWnYFN1euYa+8h7Pj57G8+wiLW/Pojffh/OTzuLV6DflKnn8bs+iOB717z0TUdNjdezJq0HGBjh5kNGGaBCG/EHIf2/l18vNOmgbLaWCvksH81m1s7q0gV9qhT8HtYD27hO38BrYLG1hI38H81i3slbPIlXewk9/EcmYOG9klpPNr2C2ksZZZwEZ2GTvFNG4uf4BHOw9QquZRqOSwnn2Erfw68uVd5OhS33Z+A0s7c8hXsrBAboyUqnk82LyB3WIaDbsB22lgr5zFTmETq5lFrGUWsZFbRra0g0J1D9nSFjLFbewWt7CRW8Fqlsy517JLKNUKaDgN5MtZrGYWUK4XsbW3gc29VWQKaeQre9gtpLG0O4+V3QXsFNMo14rIlLaxsruAjdwyX0XIlnawXdjAauYRNnKr2CmksVfOYS27hM3cKrbyG8hXctjILuPexg3c37iJ1cwjpPfWkd5bw3JmAcVqAcVqAZniNmp08FrJLGArv4lMcRvp/Do2cito0LfvNauKar2MncIm7q5fx/2Nm9gubKJUI/P2jdwKdos7SO9tYLe4jYbdQKa4g6XdeeyVs6g0ygRrcRtDnaOwbAsPNm9heWcRt1av4OHmHeyVc6jUS9jKb2Inv4lseRfLO4vYLmwiV8piaXcBmdIu6lYN2/lNrOdWsF3YQqGyh2xpF5niDtazq1jLLiFb2kWhmsduYQvLu4u4uXoFC9sPsJFbpecbOR/rdLViJfOI3zDcKWxjr5LFTn4La9klrGVXsFNIY6ewjVw5g638JpZ3F7GSWcLG3hpWdh6hWC2gWq8gvbeJpZ15FKsFbObWsFPYodPLOtZzq0jn1rFT3EGmuINKvYx767dxc/Uq1nOrKDfKyJYyuL95B9v5HWRLGTpgb+La8mU83LyHbDmLUq2IncI2lnYWkYylEPAFsJFbw/z2HI4OHsds/2HcWruJm6vXUKgWkCnuYnFnEdV6ufWVnnZncS0nW2qJKGWvj/V5+pA/TOdAdVhWAxrIXN7vD6JWr6Jh1aBpOkJmGAF/GJV6GZbdgK4ZaNCbW+SBGLLkxR5ZtB2yOqDxt1sh0pHtBgzdhN/nR92q099UdxA0Qwj5I7DsBorVPPkZJ3pD0PQFUKtXYVkNOJoDHTp8PhOGbtK5pA3bsVFrVPk7m3AwCp9momHVUW1UYPr8aDTInE3Xdfh9QdQa5E6zpumw7AbqVh0BM4CgGUG1Xka5XoKh+xALdvAbnvJPRXeEye8DVOolVOsVaNAQCXbAdhqoN2qwHIf/Wmu9UYUNMv9zQOb61XoFlkO+8dYwTHSEOmE5DZSrJTTsOrkfYBio1Wt83kcePIpCg07eDVk1GLoBvy/IV2N03YDjkJg+w4Rp+FG3arBsi9yn0Q10hBJ45fDn4cDBe3M/wm5hG8VaAbZtQ9cN8lNSDpn3+40ALLsBy7FgGn5YtoW6VYdpmNA18nbWcWzomg+RQASG7kO1UUGpWgQ0IGSG4TP8sO0Gqo0qub9jVWFZ5GahRp/FYPPsmlUnz+frGuLBBBz6q0Tk5ii5HxQNxqBBQ7lehu1YMA1yn8VxHPgMEz6KgXw5jEPx2wjQdmrYFmzbgs/wIxHuRKG6h2qtCkej0y8ziHK1RO8TkQeWDN2HfGUPlm0jHopjIDGEoa5RlKpFnJ98DrVGDTdXr2Eju4avnP2vUKmX8fbtN3Fz9RqZSuomao0qv8v/ZFd6qQPLua2evSdCnJMgqgvvSt5BZOGgn36evo004/fm2dq+vXjwdVeXAsXDnTg79hxsx8a1JfJQlhs/MZf9uh16SWvc3nxb2zeJA/kAuI6HxFcJcFD/Kk/Wjq0kFevFqZEzeGHqZZTqJTSsBi4tvo9H2/MYS03gCye+jG9e+ytcX76M3eKud/t54eW6+TFhx/VYtozv6efpDyQencRtosgT8PUaFFrqZvxeZkL2x6OKytegTw2CXkW9P2vgEhcgQu8f5+fpTcNEItyJwc5hmIaJld0l7BZ3YPr86I33wdB9WNpZREV6Z8jEO8zj81QGv1ZXejXYATqhIgfshDxA80ncXrwPVmtp7deLJ+mErmqqoYq7Fc8mXAc/WE14fl6eCswDDjJcNOh0CRHSclFL88fgSeQJeO6DXz3fKN/HwOPG7xWmnb0sGshSoc/wQYOGht1Aw26QDw7rPugaUGuQqatnoFY8JSHZaju2kgOv04sd6s5hjwNJ2VxTX9ITROBauODIlAyyzXG5SkiSbdyWUgWupaeUaCzGFwo1ugYqk2E8XT5JHeajBU9qLkR2RHFwrVqQGJKNFMuzAo9NfMtclHbn/JQMFpD7Ut07sByb3A8B+10/hk7YCpFLqDVrd1ZCYxBNsVIsjmLgldR2Z3Vln8yFHFvGI7S6RzTxT4+qksdt3DtcU2uuSc2G1UClVkG5Vka9UYdjk2cE6o0qqvUa+RJTNzSuGU8XX2oizFX07lImj7FOr3FNKwhjls0e0qBPhokklwkXii/hRMRUsJA89sf2XJbMsVSR2iha4ivz1ChPqkWi7nmiMV13VZkvhRaNxXEpicbme1Iu88V4KjHdFQRfhSfl1ERHKgPjy30o7lwxXTxpeBU7KRM5ZJu3OyuhvrkvrqVYDBYPJCqpx4r4VzjSmExDaRsZCY1BN4SW/1gO9cvr0NgEgARW4kvDEFwMI+XJORAD4UKpRMqobzlmE0/2yngKtJL2nNPTci8tqsHxeDvWZMZFtvAW1c8BphNKcfPbPb77K5tOtPffxJcB9TZwaRd+13SiGd/+eIgIO6+wzdLGr8sBobfPDdwmae3fu3pre1Wa7bz9Sfau86u9Vuf0zf7c0oyHiaf7g/QPRURN53E+Ty8K6UjDNbWRtDzCEt/EETun+bnNtRiVWCyRIydhpdaRnCox5NgMC63FR10Zu8xNTiwmdU91M0+maUxGj2pai5bJWvLFcnlMaqNocFx0h3KQrx5yov6pvUYAUk05QiUnbfKYlJ2EncaW2PEt7oDaKjEl+JwnLZM4SAauJNqA15HajIaQtIxQwiaJbEERKWxFTFd1d6bMU9An2KRjQfIodtkHS0pMioJrhs1lTrfUElHKXsWc3j1HkKcpyg4ds8hkhQ9hDt0mmvpqNdelmtXllVliMWUT4oFr956wlCpQX4A6l2faoaG5Kd0hfBk/ZqCCIXVobImn4NtcjTqUkih17xEL9krwqDHlCgoJks24cC2aWW0Lua7sUy4Sbcy2yHaTuUeOWsr36AZrM/Kv8myqzpOorB6zpmKqXU5IAJqnCsmVW17mLtko1eU2pNZcUwva7gpfkkltJL48kKgs2kbwbTKnW6KE7LnliX6fno0+8kBCRjT1ivP4Vxqm5djUH8cokArNGDDhFbnP5isNrS3HYiMvqycMXEm0wWNdadw8Sab0KvaIhfhTYjZVcPNlXGQtJ7ms3ZWGuZVj07oco2xOY8sOlG1pj8YUbUaZKm0rY6CVuGbYZS5SEUge0yQW09ShCo2UcS3/sRzql9aVrQVYmsc1taAYFZ48EUPhwoMn9S3H9uLJfLvQKeIxp5fmLtyqecBwqDvnAEsEwoE7vBBWKvttZ69WaJ5z8V15Ts+EZ7Txr8hHOKdXC1roZvxeZkL2x6PKk/B1iQsQofePc51+f2mN2ztMa3tvER3BeZzP09NCnthoJLScZF9iZCWa+qUxWAbZJPbylncSox2vy51zl5J2jayg2KhDoSVOrIDl8Zi0iPngWhphWUwCQRKWI9hxvtyXHMPNk4GVDBUO7Li4+DI83FbyISpLmsbkiGW0buzMUhaZBLWhMYWWEospYRf8mJYTjSm1iUb5Mc1iyDGbHdHYfE/KZb4YTx6T2igVBFaFp8xRSayM+lUcq75JUQueChOSJ7SrlON6uk4PKNSkuRbZEDxdPkkd5qMFT2ouRHZEcXCtWpAYko081/WqwGMT3zIXpd05PyWDBeS+VPcyErX1hY0scgm1Zu3OSmgMoilWuHiy6k1JbXdWV/bJXMixZTxCq3tEE/+MrZzHbdw7XFNrrqkZLSKJYqYZxIb5cPsmlUXbSHypiTCXkTaXMnm6Ti/z1ChPqkWi7nmiMVuNwBSK0Ayb2xGNzfekXOaL8VRiuisIvgpPyqmJjlQGxpf7UNy5Yrp40vAqdlImcsg2b3dWQn1zX1xLsRgsHkhUUo8V8a9wpDGZhtI2MhIag24ILf+xHOqX16GxCQAJrMSXhiG4GEbKk3MgBsKFUomUUd9yzCae7JXxFGgl7Tmnp+VeWlSD02ouJJtxkS28RfXzGHN6gGw4B5jTKzz38a+IN9/W8gR8GVBvA5d24Wc8Wx6H/fEQEXZeYZuljV+XA0Lv6Tq9tzTjYeLp/iD9QxFR03m6Ti8oEZcyNzmxmNQ91c08maYxGT2qaS1aJmvJF8vlMamNosFx0R3KQb56yIn6p/YaAUg15QiVnLTJY1J2EnYaW2LHt7gDaqvElOBznrRM4iAZuJJoA15HajMaQtIyQgmbJLIFRaSwFTFd1d2ZMk9Bn2CTjgXJo9hlHywpMSkKrhk2lzndUktEKXt9uk6vUJNic37MQAVD6tDYEk/Bt7kadSglUereIxbsleBRY8oVFBIkm3HhWjSz2hZyXdmnXCTamG2R7SZzjxy1lO/RDdZm5F/l2VSdJ1FZPWZNxVS7nJAANE8Vkiu3vMxdslGqy21IrbmmFrTdFb4kk9pIfHkgUVm0jeDbZE63RAnZc8vTdXo5Fht5WT1h4EqiDR7rSuPmSTKlV7FHLMSfErOpgpsv4yJrOcll7a40zK0cm9blGGVzGlt2oGxLezSmaDPKVGlbGQOtxDXDLnORikDymCaxmKYOVWikjGv5j+VQv7SubC3A0jyuqQXFqPDkiRgKFx48qW85thdP5tuFTpH/H/WY+Q0ZNiiXAAAAAElFTkSuQmCC;container=0;" vertex="1" parent="kJDJlWwb6tZaWvkvZyPa-40">
          <mxGeometry x="315" y="409.5" width="159.09" height="61" as="geometry" />
        </mxCell>
        <mxCell id="kJDJlWwb6tZaWvkvZyPa-27" value="Product Configuration Query ENGINE" style="text;strokeColor=none;align=center;fillColor=none;html=1;verticalAlign=middle;whiteSpace=wrap;rounded=0;container=0;" vertex="1" parent="kJDJlWwb6tZaWvkvZyPa-40">
          <mxGeometry x="303" y="206" width="219" height="43" as="geometry" />
        </mxCell>
        <mxCell id="kJDJlWwb6tZaWvkvZyPa-34" value="Policy &#xa;Print&#xa;Package" style="shape=image;verticalLabelPosition=bottom;labelBackgroundColor=#ffffff;verticalAlign=top;aspect=fixed;imageAspect=0;image=data:image/svg+xml,PHN2ZyB4bWxuczpjYz0iaHR0cDovL2NyZWF0aXZlY29tbW9ucy5vcmcvbnMjIiB4bWxuczpkYz0iaHR0cDovL3B1cmwub3JnL2RjL2VsZW1lbnRzLzEuMS8iIHhtbG5zOmlua3NjYXBlPSJodHRwOi8vd3d3Lmlua3NjYXBlLm9yZy9uYW1lc3BhY2VzL2lua3NjYXBlIiB4bWxuczpyZGY9Imh0dHA6Ly93d3cudzMub3JnLzE5OTkvMDIvMjItcmRmLXN5bnRheC1ucyMiIHhtbG5zOnNvZGlwb2RpPSJodHRwOi8vc29kaXBvZGkuc291cmNlZm9yZ2UubmV0L0RURC9zb2RpcG9kaS0wLmR0ZCIgeG1sbnM6c3ZnPSJodHRwOi8vd3d3LnczLm9yZy8yMDAwL3N2ZyIgeG1sbnM9Imh0dHA6Ly93d3cudzMub3JnLzIwMDAvc3ZnIiB4bWxuczp4bGluaz0iaHR0cDovL3d3dy53My5vcmcvMTk5OS94bGluayIgdmVyc2lvbj0iMS4xIiBpZD0ic3ZnNTAyMzYiIGlua3NjYXBlOnZlcnNpb249IjAuOTIuMyAoMjQwNTU0NiwgMjAxOC0wMy0xMSkiIHNvZGlwb2RpOmRvY25hbWU9InBkZi5zdmciIHg9IjBweCIgeT0iMHB4IiB2aWV3Qm94PSIwIDAgMjYuOTkgMzUuMTUiIHN0eWxlPSJlbmFibGUtYmFja2dyb3VuZDpuZXcgMCAwIDI2Ljk5IDM1LjE1OyIgeG1sOnNwYWNlPSJwcmVzZXJ2ZSI+JiN4YTs8c29kaXBvZGk6bmFtZWR2aWV3IGJvcmRlcmNvbG9yPSIjNjY2NjY2IiBib3JkZXJvcGFjaXR5PSIxIiBmaXQtbWFyZ2luLWJvdHRvbT0iMCIgZml0LW1hcmdpbi1sZWZ0PSIwIiBmaXQtbWFyZ2luLXJpZ2h0PSIwIiBmaXQtbWFyZ2luLXRvcD0iMCIgZ3JpZHRvbGVyYW5jZT0iMTAiIGd1aWRldG9sZXJhbmNlPSIxMCIgaWQ9Im5hbWVkdmlldzUwMjM4IiBpbmtzY2FwZTpjdXJyZW50LWxheWVyPSJzdmc1MDIzNiIgaW5rc2NhcGU6Y3g9IjE3Ljk5NDM4NCIgaW5rc2NhcGU6Y3k9IjIzLjQzNTg1IiBpbmtzY2FwZTpwYWdlb3BhY2l0eT0iMCIgaW5rc2NhcGU6cGFnZXNoYWRvdz0iMiIgaW5rc2NhcGU6d2luZG93LWhlaWdodD0iMTAxNyIgaW5rc2NhcGU6d2luZG93LW1heGltaXplZD0iMSIgaW5rc2NhcGU6d2luZG93LXdpZHRoPSIxOTIwIiBpbmtzY2FwZTp3aW5kb3cteD0iLTgiIGlua3NjYXBlOndpbmRvdy15PSItOCIgaW5rc2NhcGU6em9vbT0iMTEuNDA2MDg5IiBvYmplY3R0b2xlcmFuY2U9IjEwIiBwYWdlY29sb3I9IiNmZmZmZmYiIHNob3dncmlkPSJmYWxzZSI+JiN4YTsJPC9zb2RpcG9kaTpuYW1lZHZpZXc+JiN4YTs8ZyBpZD0iZzUwMjM0IiB0cmFuc2Zvcm09InRyYW5zbGF0ZSgtMTAuOTI4NiwtMTAuOTMxNDM0KSI+JiN4YTsJPHRpdGxlIGlkPSJ0aXRsZTUwMTkxIj5QYWdlLTE8L3RpdGxlPiYjeGE7CTxnIGlkPSJncm91cDQyMDgtMSIgdHJhbnNmb3JtPSJ0cmFuc2xhdGUoMTAuOTI4NiwtMTAuOTI4NikiPiYjeGE7CQk8dGl0bGUgaWQ9InRpdGxlNTAxOTMiPlBERjwvdGl0bGU+JiN4YTsJCTxnIGlkPSJzaGFwZTQyMDktMiI+JiN4YTsJCQk8dGl0bGUgaWQ9InRpdGxlNTAxOTUiPlNoZWV0LjQyMDk8L3RpdGxlPiYjeGE7CQkJPHBhdGggaWQ9InBhdGg1MDE5NyIgaW5rc2NhcGU6Y29ubmVjdG9yLWN1cnZhdHVyZT0iMCIgc3R5bGU9ImZpbGw6I0U5RTlFMDsiIGQ9Ik0xOS4xNCwyMS44NkgwLjkyQzAuNDEsMjEuODYsMCwyMi4yNywwLDIzLjA3ICAgICB2MzMuMzFjMCwwLjIyLDAuNDEsMC42MywwLjkyLDAuNjNoMjUuMTVjMC41MSwwLDAuOTItMC40MSwwLjkyLTAuNjNWMzBjMC0wLjQzLTAuMDYtMC41Ny0wLjE2LTAuNjhsLTcuMy03LjMgICAgIEMxOS40MiwyMS45MiwxOS4yOCwyMS44NiwxOS4xNCwyMS44NnoiLz4mI3hhOwkJPC9nPiYjeGE7CQk8ZyBpZD0ic2hhcGU0MjEwLTQiIHRyYW5zZm9ybT0idHJhbnNsYXRlKDE5LjQ1OTEsLTI3LjYxOTMpIj4mI3hhOwkJCTx0aXRsZSBpZD0idGl0bGU1MDIwMCI+U2hlZXQuNDIxMDwvdGl0bGU+JiN4YTsJCQk8cGF0aCBpZD0icGF0aDUwMjAyIiBpbmtzY2FwZTpjb25uZWN0b3ItY3VydmF0dXJlPSIwIiBzdHlsZT0iZmlsbDojRDlEN0NBOyIgZD0iTTAsNDkuNTd2Ny40NGg3LjQ0TDAsNDkuNTd6Ii8+JiN4YTsJCTwvZz4mI3hhOwkJPGcgaWQ9InNoYXBlNDIxMS02IiB0cmFuc2Zvcm09InRyYW5zbGF0ZSg2LjgyMDcyLC0xNC4yMzQpIj4mI3hhOwkJCTx0aXRsZSBpZD0idGl0bGU1MDIwNSI+U2hlZXQuNDIxMTwvdGl0bGU+JiN4YTsJCQk8cGF0aCBpZD0icGF0aDUwMjA3IiBpbmtzY2FwZTpjb25uZWN0b3ItY3VydmF0dXJlPSIwIiBzdHlsZT0iZmlsbDojQzAwMDAwOyIgZD0iTTEuMzUsNTcuMDFjLTAuMjIsMC0wLjQzLTAuMDctMC42MS0wLjIxICAgICBjLTAuNjUtMC40OS0wLjc0LTEuMDMtMC43LTEuNGMwLjEyLTEuMDIsMS4zOC0yLjA5LDMuNzYtMy4xOGMwLjk0LTIuMDcsMS44NC00LjYyLDIuMzgtNi43NWMtMC42My0xLjM3LTEuMjQtMy4xMy0wLjgtNC4xNyAgICAgYzAuMTYtMC4zNywwLjM1LTAuNjQsMC43Mi0wLjc2YzAuMTQtMC4wNSwwLjUtMC4xMSwwLjYzLTAuMTFjMC4zMiwwLDAuNiwwLjQsMC44LDAuNjZjMC4xOCwwLjIzLDAuNiwwLjczLTAuMjQsNC4yNyAgICAgYzAuODUsMS43NCwyLjA1LDMuNTIsMy4yLDQuNzRjMC44Mi0wLjE1LDEuNTMtMC4yMiwyLjEtMC4yMmMwLjk5LDAsMS41OCwwLjIzLDEuODIsMC43YzAuMjEsMC4zOSwwLjEyLDAuODUtMC4yNCwxLjM1ICAgICBjLTAuMzUsMC40OS0wLjgzLDAuNzUtMS4zOSwwLjc1Yy0wLjc3LDAtMS42Ni0wLjQ4LTIuNjUtMS40M2MtMS43OCwwLjM3LTMuODYsMS4wMy01LjU0LDEuNzdjLTAuNTIsMS4xMS0xLjAzLDIuMDEtMS40OSwyLjY3ICAgICBDMi40NSw1Ni41OSwxLjksNTcuMDEsMS4zNSw1Ny4wMXogTTMuMDIsNTMuNzljLTEuMzQsMC43Ni0xLjg5LDEuMzctMS45MywxLjcyYzAsMC4wNi0wLjAyLDAuMjEsMC4yNywwLjQ0ICAgICBDMS40Niw1NS45MiwyLDU1LjY3LDMuMDIsNTMuNzl6IE0xMS41OCw1MWMwLjUxLDAuNCwwLjY0LDAuNiwwLjk3LDAuNmMwLjE1LDAsMC41Ny0wLjAxLDAuNzYtMC4yOCAgICAgYzAuMDktMC4xMywwLjEzLTAuMjIsMC4xNC0wLjI2Yy0wLjA3LTAuMDQtMC4xOC0wLjEzLTAuNzMtMC4xM0MxMi40LDUwLjk0LDEyLDUwLjk1LDExLjU4LDUxeiBNNi44OSw0Ni44NyAgICAgYy0wLjQ1LDEuNTUtMS4wNCwzLjIzLTEuNjgsNC43NWMxLjMxLTAuNTEsMi43NC0wLjk1LDQuMDgtMS4yN0M4LjQ0LDQ5LjM3LDcuNiw0OC4xNCw2Ljg5LDQ2Ljg3eiBNNi41MSw0MS41NiAgICAgYy0wLjA2LDAuMDItMC44NCwxLjEsMC4wNiwyLjAyQzcuMTcsNDIuMjUsNi41NCw0MS41NSw2LjUxLDQxLjU2eiIvPiYjeGE7CQk8L2c+JiN4YTsJCTxnIGlkPSJzaGFwZTQyMTItOCI+JiN4YTsJCQk8dGl0bGUgaWQ9InRpdGxlNTAyMTAiPlNoZWV0LjQyMTI8L3RpdGxlPiYjeGE7CQkJPHBhdGggaWQ9InBhdGg1MDIxMiIgaW5rc2NhcGU6Y29ubmVjdG9yLWN1cnZhdHVyZT0iMCIgc3R5bGU9ImZpbGw6I0MwMDAwMDsiIGQ9Ik0yNi4wNyw1Ny4wMUgwLjkyQzAuNDEsNTcuMDEsMCw1Ni42LDAsNTYuMDkgICAgIHYtOS43NWgyNi45OXY5Ljc1QzI2Ljk5LDU2LjYsMjYuNTgsNTcuMDEsMjYuMDcsNTcuMDF6Ii8+JiN4YTsJCTwvZz4mI3hhOwkJPGcgaWQ9Imdyb3VwNDIxMy0xMCIgdHJhbnNmb3JtPSJ0cmFuc2xhdGUoNS44MDI1NywtMS44ODMxNCkiPiYjeGE7CQkJPHRpdGxlIGlkPSJ0aXRsZTUwMjE1Ij5TaGVldC40MjEzPC90aXRsZT4mI3hhOwkJCTxnIGlkPSJzaGFwZTQyMTQtMTEiPiYjeGE7CQkJCTx0aXRsZSBpZD0idGl0bGU1MDIxNyI+U2hlZXQuNDIxNDwvdGl0bGU+JiN4YTsJCQkJPHBhdGggaWQ9InBhdGg1MDIxOSIgaW5rc2NhcGU6Y29ubmVjdG9yLWN1cnZhdHVyZT0iMCIgc3R5bGU9ImZpbGw6I0ZGRkZGRjsiIGQ9Ik0xLjAzLDU3LjAxSDB2LTYuMzNoMS44MiAgICAgIGMwLjI3LDAsMC41MywwLjA1LDAuOCwwLjEzYzAuMjYsMC4wOSwwLjUsMC4yMiwwLjcsMC4zOWMwLjIxLDAuMTcsMC4zOCwwLjM4LDAuNTEsMC42MmMwLjEzLDAuMjQsMC4xOSwwLjUyLDAuMTksMC44MiAgICAgIGMwLDAuMzItMC4wNSwwLjYxLTAuMTYsMC44N2MtMC4xMSwwLjI2LTAuMjYsMC40OC0wLjQ1LDAuNjZjLTAuMiwwLjE4LTAuNDMsMC4zMS0wLjcxLDAuNDFjLTAuMjcsMC4xLTAuNTgsMC4xNS0wLjkxLDAuMTVIMS4wMyAgICAgIFY1Ny4wMXogTTEuMDMsNTEuNDd2Mi41aDAuOTRjMC4xMywwLDAuMjUtMC4wMiwwLjM4LTAuMDZjMC4xMi0wLjA1LDAuMjMtMC4xMiwwLjM0LTAuMjFjMC4xLTAuMSwwLjE4LTAuMjQsMC4yNS0wLjQxICAgICAgQzMsNTMuMTEsMy4wMyw1Mi45LDMuMDMsNTIuNjRjMC0wLjEtMC4wMi0wLjIyLTAuMDQtMC4zNmMtMC4wMy0wLjEzLTAuMDktMC4yNi0wLjE4LTAuMzhjLTAuMDktMC4xMi0wLjIxLTAuMjMtMC4zNy0wLjMxICAgICAgYy0wLjE2LTAuMDgtMC4zNy0wLjEyLTAuNjQtMC4xMkwxLjAzLDUxLjQ3eiIvPiYjeGE7CQkJPC9nPiYjeGE7CQkJPGcgaWQ9InNoYXBlNDIxNS0xMyIgdHJhbnNmb3JtPSJ0cmFuc2xhdGUoNS4yMzUxMikiPiYjeGE7CQkJCTx0aXRsZSBpZD0idGl0bGU1MDIyMiI+U2hlZXQuNDIxNTwvdGl0bGU+JiN4YTsJCQkJPHBhdGggaWQ9InBhdGg1MDIyNCIgaW5rc2NhcGU6Y29ubmVjdG9yLWN1cnZhdHVyZT0iMCIgc3R5bGU9ImZpbGw6I0ZGRkZGRjsiIGQ9Ik01LjExLDUzLjY3YzAsMC41Mi0wLjA2LDAuOTctMC4xNywxLjM0ICAgICAgYy0wLjExLDAuMzYtMC4yNSwwLjY3LTAuNDMsMC45MmMtMC4xNywwLjI1LTAuMzYsMC40NS0wLjU4LDAuNTljLTAuMjEsMC4xNC0wLjQyLDAuMjUtMC42MiwwLjMyYy0wLjIsMC4wNy0wLjM4LDAuMTItMC41NSwwLjE0ICAgICAgQzIuNiw1NywyLjQ3LDU3LjAxLDIuMzksNTcuMDFIMHYtNi4zM2gxLjkxYzAuNTMsMCwxLDAuMDksMS40LDAuMjZzMC43NCwwLjM5LDEsMC42N2MwLjI3LDAuMjgsMC40NywwLjYsMC42LDAuOTYgICAgICBTNS4xMSw1My4yOSw1LjExLDUzLjY3eiBNMi4wNSw1Ni4yNWMwLjcsMCwxLjItMC4yMiwxLjUxLTAuNjdjMC4zMS0wLjQ0LDAuNDYtMS4wOSwwLjQ2LTEuOTNjMC0wLjI3LTAuMDMtMC41My0wLjA5LTAuNzkgICAgICBjLTAuMDYtMC4yNS0wLjE4LTAuNDktMC4zNi0wLjdjLTAuMTgtMC4yLTAuNDMtMC4zNy0wLjc0LTAuNXMtMC43MS0wLjE5LTEuMi0wLjE5aC0wLjZ2NC43OEgyLjA1eiIvPiYjeGE7CQkJPC9nPiYjeGE7CQkJPGcgaWQ9InNoYXBlNDIxNi0xNSIgdHJhbnNmb3JtPSJ0cmFuc2xhdGUoMTEuODM0OSkiPiYjeGE7CQkJCTx0aXRsZSBpZD0idGl0bGU1MDIyNyI+U2hlZXQuNDIxNjwvdGl0bGU+JiN4YTsJCQkJPHBhdGggaWQ9InBhdGg1MDIyOSIgaW5rc2NhcGU6Y29ubmVjdG9yLWN1cnZhdHVyZT0iMCIgc3R5bGU9ImZpbGw6I0ZGRkZGRjsiIGQ9Ik0xLjA1LDUxLjQ3djEuOTloMi42NHYwLjdIMS4wNXYyLjg1SDB2LTYuMzMgICAgICBoMy45NnYwLjc5SDEuMDV6Ii8+JiN4YTsJCQk8L2c+JiN4YTsJCTwvZz4mI3hhOwk8L2c+JiN4YTs8L2c+JiN4YTs8L3N2Zz4=;container=0;" vertex="1" parent="kJDJlWwb6tZaWvkvZyPa-40">
          <mxGeometry x="949" y="289" width="61.71" height="80" as="geometry" />
        </mxCell>
        <mxCell id="kJDJlWwb6tZaWvkvZyPa-31" value="" style="sketch=0;points=[[0,0,0],[0.25,0,0],[0.5,0,0],[0.75,0,0],[1,0,0],[0,1,0],[0.25,1,0],[0.5,1,0],[0.75,1,0],[1,1,0],[0,0.25,0],[0,0.5,0],[0,0.75,0],[1,0.25,0],[1,0.5,0],[1,0.75,0]];outlineConnect=0;fontColor=#232F3E;fillColor=#7AA116;strokeColor=#ffffff;dashed=0;verticalLabelPosition=bottom;verticalAlign=top;align=center;html=1;fontSize=12;fontStyle=0;aspect=fixed;shape=mxgraph.aws4.resourceIcon;resIcon=mxgraph.aws4.s3;container=0;" vertex="1" parent="kJDJlWwb6tZaWvkvZyPa-40">
          <mxGeometry x="897" y="149" width="78" height="78" as="geometry" />
        </mxCell>
      </root>
    </mxGraphModel>
  </diagram>
</mxfile>
